<svg width="24" height="24" viewBox="0 0 24 24" fill="none" xmlns="http://www.w3.org/2000/svg">
<g id="airplane--Streamline-Emoji">
<g id="Group">
<path id="Vector" opacity="0.15" d="M4.75 22.25C4.75 22.3485 4.93753 22.446 5.30187 22.537C5.66622 22.628 6.20025 22.7107 6.87348 22.7803C7.5467 22.85 8.34593 22.9052 9.22554 22.9429C10.1052 22.9806 11.0479 23 12 23C12.9521 23 13.8948 22.9806 14.7745 22.9429C15.6541 22.9052 16.4533 22.85 17.1265 22.7803C17.7997 22.7107 18.3338 22.628 18.6981 22.537C19.0625 22.446 19.25 22.3485 19.25 22.25C19.25 22.1515 19.0625 22.054 18.6981 21.963C18.3338 21.872 17.7997 21.7893 17.1265 21.7197C16.4533 21.65 15.6541 21.5948 14.7745 21.5571C13.8948 21.5194 12.9521 21.5 12 21.5C11.0479 21.5 10.1052 21.5194 9.22554 21.5571C8.34593 21.5948 7.5467 21.65 6.87348 21.7197C6.20025 21.7893 5.66622 21.872 5.30187 21.963C4.93753 22.054 4.75 22.1515 4.75 22.25Z" fill="#45413C"/>
<path id="Vector_2" d="M8.895 22.4452L1.235 14.7902C1.18776 14.7527 1.15118 14.7035 1.1289 14.6475C1.10662 14.5914 1.09942 14.5305 1.10802 14.4708C1.11662 14.4111 1.14072 14.3547 1.17791 14.3072C1.21511 14.2598 1.2641 14.2229 1.32 14.2002L1.79 14.0002C1.91863 13.9602 2.05638 13.9602 2.185 14.0002L6 14.7852L8.91 17.6952L9.705 21.5002C9.73123 21.6342 9.7191 21.7728 9.67 21.9002L9.48 22.3652C9.4576 22.4208 9.42089 22.4695 9.37359 22.5063C9.3263 22.5432 9.27011 22.5669 9.21072 22.575C9.15133 22.5831 9.09084 22.5754 9.0354 22.5526C8.97995 22.5298 8.93152 22.4928 8.895 22.4452Z" fill="#4ACFFF"/>
<path id="Vector_3" d="M7.32 17.3701L7.895 16.6951L6 14.7851L2.185 14.0001C2.05284 13.9713 1.91505 13.9835 1.79 14.0351L1.32 14.2201C1.2641 14.2427 1.21511 14.2796 1.17791 14.3271C1.14072 14.3746 1.11662 14.431 1.10802 14.4907C1.09942 14.5504 1.10662 14.6113 1.1289 14.6673C1.15118 14.7234 1.18776 14.7726 1.235 14.8101L1.735 15.3101H1.795C1.92005 15.2585 2.05784 15.2463 2.19 15.2751L6 16.0351L7.32 17.3701Z" fill="#80DDFF"/>
<path id="Vector_4" d="M8.89479 17.6949L8.63979 17.4399L5.52979 19.0899L7.12979 20.6849C7.37533 20.6862 7.61968 20.6508 7.85478 20.5799C8.40347 20.4046 8.91289 20.1244 9.35478 19.7549L8.89479 17.6949Z" fill="#00B8F0"/>
<path id="Vector_5" d="M8.895 22.4452L1.235 14.7902C1.18776 14.7527 1.15118 14.7035 1.1289 14.6475C1.10662 14.5914 1.09942 14.5305 1.10802 14.4708C1.11662 14.4111 1.14072 14.3547 1.17791 14.3072C1.21511 14.2598 1.2641 14.2229 1.32 14.2002L1.79 14.0002C1.91863 13.9602 2.05638 13.9602 2.185 14.0002L6 14.7852L8.91 17.6952L9.705 21.5002C9.73123 21.6342 9.7191 21.7728 9.67 21.9002L9.48 22.3652C9.4576 22.4208 9.42089 22.4695 9.37359 22.5063C9.3263 22.5432 9.27011 22.5669 9.21072 22.575C9.15133 22.5831 9.09084 22.5754 9.0354 22.5526C8.97995 22.5298 8.93152 22.4928 8.895 22.4452Z" stroke="#45413C" stroke-width="0.5" stroke-linecap="round" stroke-linejoin="round"/>
<path id="Vector_6" d="M20.1732 13.4149L21.1631 14.4048C21.2944 14.5361 21.3682 14.7142 21.3682 14.8998C21.3682 15.0855 21.2944 15.2635 21.1631 15.3948L18.4373 18.1207L16.4574 16.1408L19.1832 13.4149C19.2482 13.3499 19.3254 13.2983 19.4103 13.2632C19.4953 13.228 19.5863 13.2099 19.6782 13.2099C19.7701 13.2099 19.8612 13.228 19.9461 13.2632C20.031 13.2983 20.1082 13.3499 20.1732 13.4149Z" fill="#C0DCEB" stroke="#45413C" stroke-width="0.5" stroke-linecap="round" stroke-linejoin="round"/>
<path id="Vector_7" d="M9.27329 2.52183L10.2632 3.51178C10.3945 3.64305 10.4683 3.8211 10.4683 4.00675C10.4683 4.19241 10.3945 4.37045 10.2632 4.50173L7.54088 7.22409L5.56098 5.24419L8.28335 2.52183C8.41462 2.39055 8.59267 2.31681 8.77832 2.31681C8.96397 2.31681 9.14202 2.39055 9.27329 2.52183Z" fill="#C0DCEB" stroke="#45413C" stroke-width="0.5" stroke-linecap="round" stroke-linejoin="round"/>
<path id="Vector_8" d="M18.9249 20.3949L14.2249 14.3949L9.27491 9.43988L3.27491 4.73988C3.17827 4.66411 3.10327 4.56425 3.05743 4.45033C3.01159 4.3364 2.99653 4.21243 3.01376 4.09084C3.03098 3.96926 3.07989 3.85434 3.15556 3.75764C3.23124 3.66093 3.33103 3.58583 3.44491 3.53988L4.39991 3.15988C4.65653 3.05481 4.93907 3.0304 5.20991 3.08988L12.9999 4.75488L18.9349 10.6999L20.5799 18.4549C20.6314 18.727 20.6036 19.0081 20.4999 19.2649L20.1149 20.2199C20.0687 20.332 19.9941 20.4301 19.8985 20.5048C19.8029 20.5794 19.6896 20.6279 19.5696 20.6455C19.4497 20.6632 19.3272 20.6493 19.2141 20.6054C19.1011 20.5615 19.0015 20.4889 18.9249 20.3949Z" fill="#4ACFFF"/>
<path id="Vector_9" d="M18.4849 10.25L18.9349 10.695L19.4999 13.36L15.6399 16.205L14.2299 14.41L13.8599 14.045L18.4849 10.25Z" fill="#00B8F0"/>
<path id="Vector_10" d="M13.3049 5.06491L12.3849 6.16991L5.23493 4.66991C4.96245 4.61002 4.6782 4.63444 4.41993 4.73991L3.64493 5.04991L3.29493 4.77491C3.19829 4.69914 3.12329 4.59928 3.07745 4.48535C3.03161 4.37143 3.01655 4.24746 3.03378 4.12587C3.051 4.00429 3.09991 3.88937 3.17558 3.79266C3.25126 3.69596 3.35105 3.62086 3.46493 3.57491L4.41993 3.18991C4.67937 3.08939 4.96214 3.06511 5.23493 3.11991L12.9999 4.74991L13.3049 5.06491Z" fill="#80DDFF"/>
<path id="Vector_11" d="M18.9249 20.3949L14.2249 14.3949L9.27491 9.43988L3.27491 4.73988C3.17827 4.66411 3.10327 4.56425 3.05743 4.45033C3.01159 4.3364 2.99653 4.21243 3.01376 4.09084C3.03098 3.96926 3.07989 3.85434 3.15556 3.75764C3.23124 3.66093 3.33103 3.58583 3.44491 3.53988L4.39991 3.15988C4.65653 3.05481 4.93907 3.0304 5.20991 3.08988L12.9999 4.75488L18.9349 10.6999L20.5799 18.4549C20.6314 18.727 20.6036 19.0081 20.4999 19.2649L20.1149 20.2199C20.0687 20.332 19.9941 20.4301 19.8985 20.5048C19.8029 20.5794 19.6896 20.6279 19.5696 20.6455C19.4497 20.6632 19.3272 20.6493 19.2141 20.6054C19.1011 20.5615 19.0015 20.4889 18.9249 20.3949Z" stroke="#45413C" stroke-width="0.5" stroke-linecap="round" stroke-linejoin="round"/>
<path id="Vector_12" d="M4.49987 17.5001L13.5699 6.5901C13.7926 6.32292 14.046 6.08293 14.3249 5.8751C16.5449 3.9551 19.8949 2.6001 21.4099 4.1151C21.6703 4.3815 21.858 4.71034 21.9549 5.0701C22.1849 3.9501 22.0699 2.9301 21.4099 2.2701C19.9099 0.770096 16.5449 2.1151 14.3249 4.0351C14.0449 4.23972 13.7913 4.4782 13.5699 4.7451L4.49987 15.6701C4.19246 16.0288 3.98673 16.4633 3.90408 16.9285C3.82142 17.3936 3.86486 17.8724 4.02987 18.3151C4.13988 18.0191 4.29875 17.7436 4.49987 17.5001Z" fill="white"/>
<path id="Vector_13" d="M19.6498 9.36012C21.5698 7.14012 22.9298 3.79012 21.4098 2.27012C19.8898 0.750125 16.5448 2.11512 14.3248 4.03512C14.0448 4.23975 13.7912 4.47823 13.5698 4.74512L4.49976 15.6701C4.07751 16.1477 3.84904 16.7659 3.85921 17.4033C3.86939 18.0407 4.11748 18.6513 4.55476 19.1151C5.01853 19.5521 5.62858 19.8003 6.26566 19.8114C6.90274 19.8225 7.52106 19.5956 7.99976 19.1751L18.9398 10.1101C19.2053 9.8891 19.4436 9.63734 19.6498 9.36012Z" fill="#E8F4FA"/>
<path id="Vector_14" d="M19.6498 9.36012C21.5698 7.14012 22.9298 3.79012 21.4098 2.27012C19.8898 0.750125 16.5448 2.11512 14.3248 4.03512C14.0448 4.23975 13.7912 4.47823 13.5698 4.74512L4.49976 15.6701C4.07751 16.1477 3.84904 16.7659 3.85921 17.4033C3.86939 18.0407 4.11748 18.6513 4.55476 19.1151C5.01853 19.5521 5.62858 19.8003 6.26566 19.8114C6.90274 19.8225 7.52106 19.5956 7.99976 19.1751L18.9398 10.1101C19.2053 9.8891 19.4436 9.63734 19.6498 9.36012Z" stroke="#45413C" stroke-width="0.5" stroke-linecap="round" stroke-linejoin="round"/>
<path id="Vector_15" d="M19.4151 4.26529C18.9966 3.85762 18.4877 3.55456 17.9299 3.38079C17.3721 3.20702 16.7811 3.16744 16.2051 3.26529L16.0351 4.76529C16.0281 4.81949 16.0339 4.87458 16.052 4.92614C16.0701 4.97771 16.1001 5.02431 16.1395 5.06222C16.1788 5.10013 16.2265 5.12829 16.2787 5.14445C16.3309 5.16062 16.3862 5.16433 16.4401 5.15529C16.9401 5.07029 17.7551 5.07529 18.1751 5.49529C18.5951 5.91529 18.6051 6.75029 18.5151 7.23529C18.5061 7.28919 18.5098 7.34446 18.5259 7.39667C18.5421 7.44888 18.5703 7.49658 18.6082 7.53594C18.6461 7.57531 18.6927 7.60526 18.7443 7.62337C18.7958 7.64149 18.8509 7.64729 18.9051 7.64029L20.4051 7.47029C20.5014 6.89587 20.462 6.30689 20.2901 5.7504C20.1183 5.19391 19.8186 4.68533 19.4151 4.26529Z" fill="#00B8F0"/>
<path id="Vector_16" d="M16.2051 3.25491L16.0351 4.75491C16.0281 4.80911 16.0339 4.8642 16.052 4.91576C16.0701 4.96733 16.1001 5.01393 16.1395 5.05184C16.1788 5.08975 16.2265 5.11791 16.2787 5.13407C16.3309 5.15024 16.3862 5.15395 16.4401 5.14491C16.726 5.09793 17.017 5.08953 17.3051 5.11991L19.3651 4.19491C18.9458 3.80624 18.4427 3.51928 17.8948 3.35628C17.3468 3.19327 16.7686 3.15859 16.2051 3.25491Z" fill="#4ACFFF"/>
<path id="Vector_17" d="M19.4151 4.26529C18.9966 3.85762 18.4877 3.55456 17.9299 3.38079C17.3721 3.20702 16.7811 3.16744 16.2051 3.26529L16.0351 4.76529C16.0281 4.81949 16.0339 4.87458 16.052 4.92614C16.0701 4.97771 16.1001 5.02431 16.1395 5.06222C16.1788 5.10013 16.2265 5.12829 16.2787 5.14445C16.3309 5.16062 16.3862 5.16433 16.4401 5.15529C16.9401 5.07029 17.7551 5.07529 18.1751 5.49529C18.5951 5.91529 18.6051 6.75029 18.5151 7.23529C18.5061 7.28919 18.5098 7.34446 18.5259 7.39667C18.5421 7.44888 18.5703 7.49658 18.6082 7.53594C18.6461 7.57531 18.6927 7.60526 18.7443 7.62337C18.7958 7.64149 18.8509 7.64729 18.9051 7.64029L20.4051 7.47029C20.5014 6.89587 20.462 6.30689 20.2901 5.7504C20.1183 5.19391 19.8186 4.68533 19.4151 4.26529V4.26529Z" stroke="#45413C" stroke-width="0.5" stroke-linecap="round" stroke-linejoin="round"/>
<path id="Vector_18" d="M19.6502 9.35992C20.2234 8.62148 20.5146 7.70291 20.4715 6.76912C20.4284 5.83532 20.0539 4.94746 19.4152 4.26492C18.7338 3.62544 17.8462 3.25076 16.9127 3.20858C15.9792 3.1664 15.0615 3.4595 14.3252 4.03492" stroke="#45413C" stroke-width="0.5" stroke-linecap="round" stroke-linejoin="round"/>
<path id="Vector_19" d="M4.56492 19.1152C4.499 19.0497 4.4467 18.9718 4.411 18.886C4.37531 18.8002 4.35693 18.7081 4.35693 18.6152C4.35693 18.5223 4.37531 18.4303 4.411 18.3444C4.4467 18.2586 4.499 18.1807 4.56492 18.1152L7.28992 15.3902C7.35558 15.3246 7.43353 15.2725 7.51932 15.2369C7.60511 15.2014 7.69706 15.1831 7.78992 15.1831C7.88278 15.1831 7.97473 15.2014 8.06052 15.2369C8.14631 15.2725 8.22426 15.3246 8.28992 15.3902C8.35558 15.4559 8.40766 15.5338 8.4432 15.6196C8.47873 15.7054 8.49702 15.7974 8.49702 15.8902C8.49702 15.9831 8.47873 16.075 8.4432 16.1608C8.40766 16.2466 8.35558 16.3246 8.28992 16.3902L5.56492 19.1152C5.4994 19.1811 5.42149 19.2334 5.33568 19.2691C5.24987 19.3048 5.15785 19.3232 5.06492 19.3232C4.97198 19.3232 4.87996 19.3048 4.79415 19.2691C4.70834 19.2334 4.63044 19.1811 4.56492 19.1152Z" fill="#4ACFFF" stroke="#45413C" stroke-width="0.5" stroke-linecap="round" stroke-linejoin="round"/>
</g>
</g>
</svg>
