<svg width="24" height="24" viewBox="0 0 24 24" fill="none" xmlns="http://www.w3.org/2000/svg">
<path opacity="0.15" d="M7.75977 22.0897C7.75977 22.2092 7.86944 22.3275 8.08252 22.4379C8.2956 22.5483 8.60791 22.6487 9.00163 22.7332C9.39535 22.8177 9.86277 22.8847 10.3772 22.9304C10.8916 22.9761 11.443 22.9997 11.9998 22.9997C12.5566 22.9997 13.1079 22.9761 13.6223 22.9304C14.1368 22.8847 14.6042 22.8177 14.9979 22.7332C15.3916 22.6487 15.7039 22.5483 15.917 22.4379C16.1301 22.3275 16.2398 22.2092 16.2398 22.0897C16.2398 21.9702 16.1301 21.8519 15.917 21.7414C15.7039 21.631 15.3916 21.5307 14.9979 21.4462C14.6042 21.3617 14.1368 21.2947 13.6223 21.249C13.1079 21.2032 12.5566 21.1797 11.9998 21.1797C11.443 21.1797 10.8916 21.2032 10.3772 21.249C9.86277 21.2947 9.39535 21.3617 9.00163 21.4462C8.60791 21.5307 8.2956 21.631 8.08252 21.7414C7.86944 21.8519 7.75977 21.9702 7.75977 22.0897Z" fill="#45413C"/>
<path d="M12.7 1.25H11.3C10.37 1.25 9.63001 1.84 9.68501 2.535L10.5 13.16C10.545 13.75 11.2 14.215 12 14.215C12.8 14.215 13.44 13.75 13.5 13.16L14.315 2.535C14.37 1.84 13.63 1.25 12.7 1.25Z" fill="#FF6242"/>
<path d="M9.78001 3.74C9.9343 3.48346 10.1553 3.27357 10.4194 3.13269C10.6836 2.99181 10.981 2.92521 11.28 2.94H12.68C12.979 2.92521 13.2764 2.99181 13.5406 3.13269C13.8047 3.27357 14.0257 3.48346 14.18 3.74L14.275 2.535C14.33 1.84 13.59 1.25 12.66 1.25H11.3C10.37 1.25 9.63001 1.84 9.68501 2.535L9.78001 3.74Z" fill="#FF866E"/>
<path d="M12.7 1.25H11.3C10.37 1.25 9.63001 1.84 9.68501 2.535L10.5 13.16C10.545 13.75 11.2 14.215 12 14.215C12.8 14.215 13.44 13.75 13.5 13.16L14.315 2.535C14.37 1.84 13.63 1.25 12.7 1.25Z" stroke="#45413C" stroke-width="0.5" stroke-linecap="round" stroke-linejoin="round"/>
<path d="M10.1748 17.6199C10.1748 17.8596 10.222 18.0969 10.3137 18.3183C10.4054 18.5397 10.5399 18.7409 10.7093 18.9104C10.8788 19.0799 11.08 19.2143 11.3014 19.306C11.5228 19.3977 11.7601 19.4449 11.9998 19.4449C12.2395 19.4449 12.4768 19.3977 12.6982 19.306C12.9196 19.2143 13.1208 19.0799 13.2903 18.9104C13.4597 18.7409 13.5942 18.5397 13.6859 18.3183C13.7776 18.0969 13.8248 17.8596 13.8248 17.6199C13.8248 17.3803 13.7776 17.1429 13.6859 16.9215C13.5942 16.7001 13.4597 16.4989 13.2903 16.3295C13.1208 16.16 12.9196 16.0256 12.6982 15.9338C12.4768 15.8421 12.2395 15.7949 11.9998 15.7949C11.7601 15.7949 11.5228 15.8421 11.3014 15.9338C11.08 16.0256 10.8788 16.16 10.7093 16.3295C10.5399 16.4989 10.4054 16.7001 10.3137 16.9215C10.222 17.1429 10.1748 17.3803 10.1748 17.6199Z" fill="#FF6242"/>
<path d="M11.9998 16.965C12.3678 16.9323 12.7369 17.0142 13.0564 17.1995C13.376 17.3848 13.6304 17.6644 13.7848 18C13.8107 17.8733 13.8241 17.7444 13.8248 17.615C13.8248 17.131 13.6325 16.6668 13.2903 16.3246C12.948 15.9823 12.4838 15.79 11.9998 15.79C11.5158 15.79 11.0516 15.9823 10.7093 16.3246C10.3671 16.6668 10.1748 17.131 10.1748 17.615C10.1755 17.7444 10.1889 17.8733 10.2148 18C10.3692 17.6644 10.6236 17.3848 10.9432 17.1995C11.2628 17.0142 11.6318 16.9323 11.9998 16.965Z" fill="#FF866E"/>
<path d="M10.1748 17.6199C10.1748 17.8596 10.222 18.0969 10.3137 18.3183C10.4054 18.5397 10.5399 18.7409 10.7093 18.9104C10.8788 19.0799 11.08 19.2143 11.3014 19.306C11.5228 19.3977 11.7601 19.4449 11.9998 19.4449C12.2395 19.4449 12.4768 19.3977 12.6982 19.306C12.9196 19.2143 13.1208 19.0799 13.2903 18.9104C13.4597 18.7409 13.5942 18.5397 13.6859 18.3183C13.7776 18.0969 13.8248 17.8596 13.8248 17.6199C13.8248 17.3803 13.7776 17.1429 13.6859 16.9215C13.5942 16.7001 13.4597 16.4989 13.2903 16.3295C13.1208 16.16 12.9196 16.0256 12.6982 15.9338C12.4768 15.8421 12.2395 15.7949 11.9998 15.7949C11.7601 15.7949 11.5228 15.8421 11.3014 15.9338C11.08 16.0256 10.8788 16.16 10.7093 16.3295C10.5399 16.4989 10.4054 16.7001 10.3137 16.9215C10.222 17.1429 10.1748 17.3803 10.1748 17.6199V17.6199Z" stroke="#45413C" stroke-width="0.5" stroke-linecap="round" stroke-linejoin="round"/>
</svg>
