<svg width="24" height="24" viewBox="0 0 24 24" fill="none" xmlns="http://www.w3.org/2000/svg">
<path opacity="0.15" d="M2.53027 22.25C2.53027 22.3485 2.71405 22.446 3.07111 22.537C3.42817 22.628 3.95152 22.7107 4.61128 22.7803C5.27104 22.85 6.05429 22.9052 6.91631 22.9429C7.77833 22.9806 8.70223 23 9.63527 23C10.5683 23 11.4922 22.9806 12.3542 22.9429C13.2163 22.9052 13.9995 22.85 14.6593 22.7803C15.319 22.7107 15.8424 22.628 16.1994 22.537C16.5565 22.446 16.7403 22.3485 16.7403 22.25C16.7403 22.1515 16.5565 22.054 16.1994 21.963C15.8424 21.872 15.319 21.7893 14.6593 21.7197C13.9995 21.65 13.2163 21.5948 12.3542 21.5571C11.4922 21.5194 10.5683 21.5 9.63527 21.5C8.70223 21.5 7.77833 21.5194 6.91631 21.5571C6.05429 21.5948 5.27104 21.65 4.61128 21.7197C3.95152 21.7893 3.42817 21.872 3.07111 21.963C2.71405 22.054 2.53027 22.1515 2.53027 22.25Z" fill="#45413C"/>
<path d="M9.55516 15.3801L3.05516 12.1851L2.26016 18.6501C2.25041 18.7294 2.26594 18.8098 2.30454 18.8799C2.34314 18.9499 2.40285 19.0059 2.47516 19.0401L8.75016 22.1201C9.06084 22.2703 9.41276 22.3125 9.75016 22.2401L16.5752 20.7401C16.6533 20.7214 16.7239 20.6793 16.7775 20.6194C16.8311 20.5596 16.8652 20.4848 16.8752 20.4051L17.6502 13.9401L10.5752 15.5001C10.2314 15.5763 9.87187 15.534 9.55516 15.3801Z" fill="#FF866E"/>
<path d="M10.5753 15.5002C10.2373 15.5703 9.88562 15.5263 9.57529 15.3752L3.07529 12.1802L2.80029 14.1102L9.32529 17.3052C9.6354 17.4571 9.98734 17.5011 10.3253 17.4302L17.4203 15.8602L17.6503 13.9352L10.5753 15.5002Z" fill="#FF6242"/>
<path d="M9.55516 15.3801L3.05516 12.1851L2.26016 18.6501C2.25041 18.7294 2.26594 18.8098 2.30454 18.8799C2.34314 18.9499 2.40285 19.0059 2.47516 19.0401L8.75016 22.1201C9.06084 22.2703 9.41276 22.3125 9.75016 22.2401L16.5752 20.7401C16.6533 20.7214 16.7239 20.6793 16.7775 20.6194C16.8311 20.5596 16.8652 20.4848 16.8752 20.4051L17.6502 13.9401L10.5752 15.5001C10.2314 15.5763 9.87187 15.534 9.55516 15.3801V15.3801Z" stroke="#45413C" stroke-width="0.5" stroke-linecap="round" stroke-linejoin="round"/>
<path d="M9.33008 21.5901L9.95008 16.3901" stroke="#E04122" stroke-width="0.5" stroke-linecap="round" stroke-linejoin="round"/>
<path d="M17.6653 13.9351L11.1653 10.7351C10.8544 10.5856 10.5027 10.5434 10.1653 10.6151L3.03027 12.1851L9.55527 15.3801C9.8656 15.5312 10.2173 15.5752 10.5553 15.5051L17.6653 13.9351Z" fill="#E04122" stroke="#45413C" stroke-width="0.5" stroke-linecap="round" stroke-linejoin="round"/>
<path d="M4.5102 12.9053L3.7002 19.6453L7.0202 21.2753L7.8302 14.5353L4.5102 12.9053Z" fill="#EDDBFF"/>
<path d="M4.51039 12.9053L4.27539 14.8303L7.60039 16.4603L7.83039 14.5353L4.51039 12.9053Z" fill="#DABFF5"/>
<path d="M4.5102 12.9053L3.7002 19.6453L7.0202 21.2753L7.8302 14.5353L4.5102 12.9053Z" stroke="#45413C" stroke-width="0.5" stroke-linecap="round" stroke-linejoin="round"/>
<path d="M16.06 14.29L15.255 21.03L11.645 21.825L12.45 15.09L16.06 14.29Z" fill="#EDDBFF"/>
<path d="M16.0602 14.29L15.8302 16.215L12.2202 17.015L12.4502 15.09L16.0602 14.29Z" fill="#DABFF5"/>
<path d="M16.06 14.29L15.255 21.03L11.645 21.825L12.45 15.09L16.06 14.29Z" stroke="#45413C" stroke-width="0.5" stroke-linecap="round" stroke-linejoin="round"/>
<path d="M8.26523 9.46492L0.615234 8.84492L1.23523 11.2049C1.25519 11.2828 1.29934 11.3524 1.36133 11.4036C1.42333 11.4548 1.49997 11.485 1.58023 11.4899L8.95523 12.0899C9.30853 12.1206 9.66162 12.0288 9.95523 11.8299L16.0852 7.69992C16.1509 7.654 16.2013 7.58941 16.2298 7.51452C16.2583 7.43963 16.2637 7.3579 16.2452 7.27992L15.6252 4.91992L9.26023 9.20492C8.96653 9.39942 8.61655 9.49087 8.26523 9.46492Z" fill="#FF866E"/>
<path d="M9.26023 9.20492C8.96514 9.4005 8.61322 9.492 8.26023 9.46492L0.615234 8.84492L0.910234 9.96992L8.56024 10.5899C8.91318 10.6166 9.26498 10.5251 9.56024 10.3299L15.9252 6.04492L15.6302 4.91992L9.26023 9.20492Z" fill="#FFA694"/>
<path d="M8.26523 9.46492L0.615234 8.84492L1.23523 11.2049C1.25519 11.2828 1.29934 11.3524 1.36133 11.4036C1.42333 11.4548 1.49997 11.485 1.58023 11.4899L8.95523 12.0899C9.30853 12.1206 9.66162 12.0288 9.95523 11.8299L16.0852 7.69992C16.1509 7.654 16.2013 7.58941 16.2298 7.51452C16.2583 7.43963 16.2637 7.3579 16.2452 7.27992L15.6252 4.91992L9.26023 9.20492C8.96653 9.39942 8.61655 9.49087 8.26523 9.46492V9.46492Z" stroke="#45413C" stroke-width="0.5" stroke-linecap="round" stroke-linejoin="round"/>
<path d="M0.615234 8.84497L7.00023 4.55497C7.29432 4.35749 7.64749 4.26743 8.00023 4.29997L15.6502 4.91997L9.26023 9.20497C8.96514 9.40055 8.61322 9.49205 8.26023 9.46497L0.615234 8.84497Z" fill="#FF866E" stroke="#45413C" stroke-width="0.5" stroke-linecap="round" stroke-linejoin="round"/>
<path d="M9.14037 4.39014L2.25537 8.97514L2.94037 11.6051L6.63037 11.9001L5.94037 9.27514L12.8254 4.69014L9.14037 4.39014Z" fill="#EDDBFF" stroke="#45413C" stroke-width="0.5" stroke-linecap="round" stroke-linejoin="round"/>
<path d="M3.3501 9.06494L5.2101 9.21494" stroke="#BF8DF2" stroke-width="0.5" stroke-linecap="round" stroke-linejoin="round"/>
<path d="M6.0152 5.20996L14.2602 5.83496L14.9502 8.45996L11.8802 10.525L11.1952 7.89996L2.9502 7.27496L6.0152 5.20996Z" fill="#EDDBFF" stroke="#45413C" stroke-width="0.5" stroke-linecap="round" stroke-linejoin="round"/>
<path d="M13.3502 6.4502L11.8052 7.4902" stroke="#BF8DF2" stroke-width="0.5" stroke-linecap="round" stroke-linejoin="round"/>
<path d="M9.45027 6.80011L8.53027 6.14511C8.53027 6.14511 9.53027 2.14511 12.2603 1.81511C12.5229 1.77952 12.7897 1.83571 13.0157 1.9742C13.2416 2.11268 13.4128 2.32495 13.5003 2.57511L13.9303 3.75011L9.45027 6.80011Z" fill="#DABFF5" stroke="#45413C" stroke-width="0.5" stroke-linecap="round" stroke-linejoin="round"/>
<path d="M9.4502 6.79999C9.4502 6.79999 11.8202 6.61499 13.8552 4.15999C13.9156 4.10084 13.9552 4.02365 13.968 3.94004C13.9808 3.85644 13.966 3.77095 13.9259 3.69647C13.8859 3.62198 13.8227 3.56254 13.7459 3.5271C13.6691 3.49166 13.5829 3.48215 13.5002 3.49999C12.5916 3.63735 11.7365 4.01601 11.0242 4.59646C10.3118 5.1769 9.76824 5.93788 9.4502 6.79999Z" fill="#BF8DF2" stroke="#45413C" stroke-width="0.5" stroke-linecap="round" stroke-linejoin="round"/>
<path d="M7.00029 7.49987L7.40529 6.44487C7.40529 6.44487 4.50029 3.77987 2.02529 4.99987C1.79254 5.11871 1.60697 5.31296 1.4989 5.5509C1.39083 5.78885 1.36664 6.0564 1.43029 6.30987L1.72529 7.52987L7.00029 7.49987Z" fill="#DABFF5" stroke="#45413C" stroke-width="0.5" stroke-linecap="round" stroke-linejoin="round"/>
<path d="M7.00021 7.49989C7.00021 7.49989 5.05021 8.75489 2.00021 7.83989C1.92443 7.81825 1.85699 7.77417 1.80676 7.71344C1.75653 7.65271 1.72588 7.5782 1.71884 7.4997C1.71181 7.42121 1.72871 7.34243 1.76734 7.27374C1.80596 7.20504 1.86449 7.14966 1.93521 7.11489C2.73563 6.71602 3.62907 6.5412 4.5208 6.60898C5.41252 6.67676 6.26928 6.98462 7.00021 7.49989Z" fill="#BF8DF2" stroke="#45413C" stroke-width="0.5" stroke-linecap="round" stroke-linejoin="round"/>
<path d="M7.25031 7.1499C7.25031 7.1499 4.70031 8.6499 4.57031 10.7949L5.87031 10.2449L6.61531 11.5249C6.61531 11.5249 7.17531 8.1349 8.26031 7.4149L7.25031 7.1499Z" fill="#BF8DF2" stroke="#45413C" stroke-width="0.5" stroke-linecap="round" stroke-linejoin="round"/>
<path d="M9.03025 6.70996C9.03025 6.70996 11.9803 6.83496 13.1003 8.70996L11.6953 8.82996L11.6303 10.305C11.6303 10.305 9.55525 7.56496 8.26025 7.42996L9.03025 6.70996Z" fill="#BF8DF2" stroke="#45413C" stroke-width="0.5" stroke-linecap="round" stroke-linejoin="round"/>
<path d="M9.70507 6.03498C9.89507 6.75998 9.29007 7.53498 8.36007 7.78998C7.43007 8.04498 6.51507 7.64498 6.33007 6.91998C6.14507 6.19498 6.74007 5.41998 7.67507 5.16498C8.61007 4.90998 9.50007 5.30998 9.70507 6.03498Z" fill="#BF8DF2"/>
<path d="M7.87033 5.91499C8.19433 5.80568 8.54346 5.79483 8.87362 5.88382C9.20378 5.97281 9.50016 6.15765 9.72533 6.41499C9.75024 6.28282 9.75024 6.14716 9.72533 6.01499C9.53533 5.28999 8.62533 4.89999 7.69533 5.14499C6.76533 5.38999 6.16033 6.17499 6.35033 6.89999C6.38443 7.0288 6.44393 7.1495 6.52533 7.25499C6.59507 6.9251 6.75941 6.62267 6.99828 6.38469C7.23715 6.14671 7.54018 5.98349 7.87033 5.91499Z" fill="#DABFF5"/>
<path d="M9.70507 6.03498C9.89507 6.75998 9.29007 7.53498 8.36007 7.78998C7.43007 8.04498 6.51507 7.64498 6.33007 6.91998C6.14507 6.19498 6.74007 5.41998 7.67507 5.16498C8.61007 4.90998 9.50007 5.30998 9.70507 6.03498Z" stroke="#45413C" stroke-width="0.5" stroke-linecap="round" stroke-linejoin="round"/>
<path d="M14.6653 13.24C14.4602 13.5647 14.1781 13.8336 13.844 14.0229C13.5099 14.2122 13.1342 14.316 12.7503 14.325L12.0703 13.13C12.4571 13.1225 12.836 13.0189 13.1729 12.8286C13.5098 12.6384 13.7941 12.3674 14.0003 12.04L14.6653 13.24Z" fill="#00F5BC" stroke="#45413C" stroke-width="0.5" stroke-linecap="round" stroke-linejoin="round"/>
<path d="M22.5001 4.59035C22.5132 4.98062 22.4285 5.36796 22.2539 5.71722C22.0792 6.06648 21.8202 6.3666 21.5001 6.59035L20.2651 5.98535C20.5796 5.75823 20.8329 5.45663 21.0022 5.10758C21.1715 4.75854 21.2515 4.37294 21.2351 3.98535L22.5001 4.59035Z" fill="#FF6242" stroke="#45413C" stroke-width="0.5" stroke-linecap="round" stroke-linejoin="round"/>
<path d="M19.775 23.5002C19.5264 23.2068 19.354 22.8567 19.2729 22.4809C19.1918 22.105 19.2045 21.7149 19.31 21.3452L20.66 21.0552C20.5547 21.4246 20.5416 21.8142 20.6218 22.1899C20.702 22.5656 20.8731 22.9159 21.12 23.2102L19.775 23.5002Z" fill="#FF6196" stroke="#45413C" stroke-width="0.5" stroke-linecap="round" stroke-linejoin="round"/>
<path d="M23.7501 12.7649C23.4756 13.0341 23.1391 13.2314 22.7702 13.3395C22.4013 13.4477 22.0115 13.4633 21.6351 13.3849L21.2451 12.0649C21.6219 12.1426 22.012 12.1262 22.3809 12.0172C22.7498 11.9082 23.0861 11.7099 23.3601 11.4399L23.7501 12.7649Z" fill="#FF8A14" stroke="#45413C" stroke-width="0.5" stroke-linecap="round" stroke-linejoin="round"/>
<path d="M18.2701 16.2651C18.6547 16.2808 19.0295 16.3906 19.3617 16.5851C19.6938 16.7795 19.9731 17.0525 20.1751 17.3801L19.5001 18.5701C19.2999 18.242 19.0217 17.9684 18.6902 17.7739C18.3587 17.5794 17.9842 17.4698 17.6001 17.4551L18.2701 16.2651Z" fill="#4AEFF7" stroke="#45413C" stroke-width="0.5" stroke-linecap="round" stroke-linejoin="round"/>
<path d="M15.0002 22.3503C14.6207 22.4128 14.2317 22.3812 13.8673 22.2583C13.5029 22.1354 13.1742 21.9249 12.9102 21.6453L13.3552 20.3403C13.6174 20.6209 13.9451 20.8322 14.3089 20.9552C14.6728 21.0782 15.0614 21.1092 15.4402 21.0453L15.0002 22.3503Z" fill="#FFF48C" stroke="#45413C" stroke-width="0.5" stroke-linecap="round" stroke-linejoin="round"/>
<path d="M16.4102 10.7703C16.4928 10.3947 16.6664 10.045 16.9158 9.75209C17.1651 9.45917 17.4825 9.23194 17.8402 9.09033L18.8902 10.0003C18.532 10.1412 18.2142 10.3682 17.9647 10.6612C17.7153 10.9543 17.542 11.3043 17.4602 11.6803L16.4102 10.7703Z" fill="#FFF48C" stroke="#45413C" stroke-width="0.5" stroke-linecap="round" stroke-linejoin="round"/>
</svg>
