<svg width="24" height="24" viewBox="0 0 24 24" fill="none" xmlns="http://www.w3.org/2000/svg">
<g id="globe-showing-europe-africa--Streamline-Emoji">
<g id="Group">
<path id="Vector" opacity="0.15" d="M6.25 22.75C6.25 22.9489 6.8558 23.1397 7.93414 23.2803C9.01247 23.421 10.475 23.5 12 23.5C13.525 23.5 14.9875 23.421 16.0659 23.2803C17.1442 23.1397 17.75 22.9489 17.75 22.75C17.75 22.5511 17.1442 22.3603 16.0659 22.2197C14.9875 22.079 13.525 22 12 22C10.475 22 9.01247 22.079 7.93414 22.2197C6.8558 22.3603 6.25 22.5511 6.25 22.75Z" fill="#45413C"/>
<path id="Vector_2" d="M2.16504 11.4151C2.16504 14.0235 3.20122 16.5251 5.04564 18.3695C6.89006 20.2139 9.39163 21.2501 12 21.2501C14.6084 21.2501 17.11 20.2139 18.9544 18.3695C20.7989 16.5251 21.835 14.0235 21.835 11.4151C21.835 8.80667 20.7989 6.3051 18.9544 4.46068C17.11 2.61626 14.6084 1.58008 12 1.58008C9.39163 1.58008 6.89006 2.61626 5.04564 4.46068C3.20122 6.3051 2.16504 8.80667 2.16504 11.4151Z" fill="#00B8F0"/>
<path id="Vector_3" d="M20.67 6.7749C21.0806 8.1287 21.1685 9.55984 20.9266 10.9537C20.6847 12.3476 20.1197 13.6654 19.277 14.8017C18.4342 15.938 17.3371 16.8611 16.0734 17.4971C14.8098 18.1332 13.4147 18.4645 12 18.4645C10.5853 18.4645 9.1903 18.1332 7.92665 17.4971C6.663 16.8611 5.56586 15.938 4.7231 14.8017C3.88034 13.6654 3.31538 12.3476 3.07348 10.9537C2.83157 9.55984 2.91944 8.1287 3.33004 6.7749C2.52757 8.27334 2.12716 9.95418 2.16786 11.6535C2.20856 13.3528 2.68898 15.0125 3.56227 16.4708C4.43555 17.9291 5.67189 19.1362 7.15068 19.9743C8.62948 20.8125 10.3003 21.253 12 21.253C13.6998 21.253 15.3706 20.8125 16.8494 19.9743C18.3282 19.1362 19.5645 17.9291 20.4378 16.4708C21.3111 15.0125 21.7915 13.3528 21.8322 11.6535C21.8729 9.95418 21.4725 8.27334 20.67 6.7749Z" fill="#009FD9"/>
<path id="Vector_4" d="M2.16504 11.4151C2.16504 14.0235 3.20122 16.5251 5.04564 18.3695C6.89006 20.2139 9.39163 21.2501 12 21.2501C14.6084 21.2501 17.11 20.2139 18.9544 18.3695C20.7989 16.5251 21.835 14.0235 21.835 11.4151C21.835 8.80667 20.7989 6.3051 18.9544 4.46068C17.11 2.61626 14.6084 1.58008 12 1.58008C9.39163 1.58008 6.89006 2.61626 5.04564 4.46068C3.20122 6.3051 2.16504 8.80667 2.16504 11.4151V11.4151Z" stroke="#45413C" stroke-width="0.5" stroke-linecap="round" stroke-linejoin="round"/>
<path id="Vector_5" d="M16.3249 2.59521L14.4199 2.93521C14.3902 2.94072 14.3615 2.95085 14.3349 2.96521L12.0599 4.31021C12.0208 4.33405 11.9757 4.34619 11.9299 4.34521H10.2949C10.2447 4.34553 10.1959 4.36123 10.1549 4.39021L7.41492 6.24521C7.3829 6.26839 7.35684 6.29883 7.33887 6.33403C7.32089 6.36923 7.31152 6.40819 7.31152 6.44772C7.31152 6.48724 7.32089 6.5262 7.33887 6.5614C7.35684 6.5966 7.3829 6.62704 7.41492 6.65022L7.91492 7.03521C7.95344 7.0608 7.99867 7.07445 8.04492 7.07445C8.09117 7.07445 8.13639 7.0608 8.17492 7.03521L10.0299 6.13522C10.0688 6.11331 10.1128 6.10181 10.1574 6.10181C10.2021 6.10181 10.246 6.11331 10.2849 6.13522L11.0099 6.63521C11.0599 6.67126 11.1216 6.68716 11.1827 6.67974C11.2439 6.67233 11.3 6.64215 11.3399 6.59521L11.5999 6.28521C11.6362 6.2434 11.6854 6.21483 11.7397 6.20397C11.794 6.19311 11.8503 6.20058 11.8999 6.22521L12.9449 6.72521C12.965 6.73387 12.9836 6.74569 12.9999 6.76021L13.6349 7.32022C13.6626 7.34449 13.6955 7.36207 13.731 7.37161C13.7666 7.38115 13.8038 7.38238 13.8399 7.37521L14.4849 7.27522C14.5269 7.26823 14.57 7.27209 14.6101 7.28644C14.6503 7.30079 14.686 7.32515 14.7141 7.3572C14.7421 7.38926 14.7615 7.42795 14.7704 7.4696C14.7793 7.51126 14.7774 7.5545 14.7649 7.59521L14.5849 8.18021C14.5706 8.22571 14.5695 8.27437 14.5819 8.32044C14.5943 8.36651 14.6197 8.40807 14.6549 8.44021L16.2499 9.89522C16.2955 9.93471 16.3241 9.9902 16.3299 10.0502L16.4649 11.0502C16.47 11.0873 16.4834 11.1228 16.5041 11.154C16.5248 11.1852 16.5522 11.2114 16.5844 11.2306C16.6166 11.2498 16.6526 11.2616 16.6899 11.2649C16.7272 11.2683 16.7648 11.2633 16.7999 11.2502L18.0949 10.7502C18.1404 10.7356 18.1793 10.7055 18.2049 10.6652L18.9449 9.66521C18.9828 9.61879 19.0024 9.56009 18.9999 9.50021L18.8799 8.85521C18.8713 8.81301 18.8737 8.76929 18.887 8.72831C18.9002 8.68732 18.9238 8.65045 18.9555 8.62127C18.9872 8.5921 19.0259 8.57161 19.0679 8.56178C19.1098 8.55196 19.1536 8.55314 19.1949 8.56521L20.1599 8.85021C20.2032 8.86205 20.2425 8.88556 20.2733 8.91819C20.3042 8.95082 20.3255 8.9913 20.3349 9.03521L20.7499 10.8852C20.7603 10.9313 20.7835 10.9734 20.8169 11.0068C20.8502 11.0402 20.8923 11.0635 20.9384 11.074C20.9844 11.0844 21.0325 11.0816 21.077 11.0659C21.1215 11.0502 21.1606 11.0222 21.1899 10.9852L21.7799 10.2402C21.5807 8.61196 20.9773 7.05943 20.0245 5.72412C19.0717 4.3888 17.7999 3.31316 16.3249 2.59521Z" fill="#6DD627" stroke="#45413C" stroke-width="0.5" stroke-linecap="round" stroke-linejoin="round"/>
<path id="Vector_6" d="M12.71 2.29985L11.755 2.02985C11.6954 2.00763 11.6297 2.00763 11.57 2.02985L10.385 2.68985C10.3471 2.70891 10.3147 2.7375 10.2912 2.77282C10.2676 2.80814 10.2536 2.84897 10.2506 2.89132C10.2476 2.93367 10.2556 2.97608 10.2739 3.01439C10.2922 3.0527 10.3202 3.08559 10.355 3.10985L10.72 3.37485C10.7498 3.3948 10.7833 3.40861 10.8185 3.41548C10.8537 3.42235 10.8899 3.42213 10.925 3.41485L11.97 3.16485H12.03L12.76 2.78485C12.8103 2.76358 12.8524 2.72675 12.8801 2.67977C12.9079 2.6328 12.9199 2.57815 12.9143 2.52387C12.9087 2.46959 12.8858 2.41854 12.8491 2.37821C12.8123 2.33789 12.7636 2.31042 12.71 2.29985Z" fill="#6DD627" stroke="#45413C" stroke-width="0.5" stroke-linecap="round" stroke-linejoin="round"/>
<path id="Vector_7" d="M14.0502 8.37989H11.1502C11.087 8.37838 11.0245 8.36655 10.9652 8.34489L9.82517 7.89989C9.7554 7.87183 9.6802 7.85986 9.60517 7.86489L7.64017 8.01489C7.36951 8.03381 7.11516 8.1512 6.92517 8.34489L5.67517 9.62989C5.58462 9.72382 5.53438 9.84942 5.53517 9.97989V11.4799C5.53586 11.5609 5.55624 11.6406 5.59457 11.712C5.63289 11.7835 5.68801 11.8445 5.75517 11.8899L6.72517 12.5499C6.82247 12.6142 6.9392 12.6425 7.05517 12.6299L9.00017 12.4449C9.09945 12.4325 9.20018 12.4502 9.28932 12.4956C9.37846 12.5411 9.45191 12.6122 9.50017 12.6999L10.7802 14.9999C10.8423 15.1128 10.8584 15.2454 10.8252 15.3699L10.5902 16.2699C10.5717 16.3382 10.568 16.4095 10.5792 16.4794C10.5904 16.5492 10.6163 16.6158 10.6552 16.6749L11.8252 18.4399C11.8782 18.5211 11.9537 18.5851 12.0425 18.6242C12.1312 18.6633 12.2295 18.6757 12.3252 18.6599L13.8702 18.4299C13.943 18.4193 14.0126 18.3927 14.0739 18.3521C14.1353 18.3114 14.1869 18.2578 14.2252 18.1949L15.6902 15.7649C15.7326 15.6832 15.7533 15.5919 15.7502 15.4999V14.1499C15.7502 14.0777 15.7658 14.0063 15.796 13.9407C15.8262 13.8751 15.8703 13.8168 15.9252 13.7699L17.1702 12.6899C17.2268 12.643 17.2724 12.5841 17.3036 12.5176C17.3349 12.451 17.3511 12.3784 17.3511 12.3049C17.3511 12.2314 17.3349 12.1587 17.3036 12.0922C17.2724 12.0256 17.2268 11.9668 17.1702 11.9199L16.5002 11.4149L14.7902 10.1449C14.7298 10.1009 14.68 10.0439 14.6445 9.97816C14.6091 9.9124 14.5888 9.83952 14.5852 9.76489L14.5502 8.85989C14.545 8.73078 14.49 8.60868 14.3968 8.51919C14.3036 8.42971 14.1794 8.37978 14.0502 8.37989Z" fill="#6DD627" stroke="#45413C" stroke-width="0.5" stroke-linecap="round" stroke-linejoin="round"/>
<path id="Vector_8" d="M17.175 15.2052L16.345 16.4152C16.3251 16.4431 16.3112 16.4749 16.3043 16.5085C16.2974 16.5421 16.2977 16.5767 16.305 16.6102L16.46 17.3752C16.4678 17.4147 16.4851 17.4516 16.5102 17.483C16.5354 17.5143 16.5677 17.5392 16.6045 17.5554C16.6413 17.5716 16.6815 17.5786 16.7216 17.576C16.7618 17.5734 16.8006 17.5611 16.835 17.5402L17.54 17.1202C17.5957 17.085 17.6352 17.0293 17.65 16.9652L18.045 15.4102C18.055 15.3733 18.0563 15.3345 18.0489 15.297C18.0415 15.2595 18.0257 15.2241 18.0025 15.1937C17.9793 15.1633 17.9494 15.1386 17.9152 15.1215C17.881 15.1044 17.8433 15.0954 17.805 15.0952H17.385C17.3439 15.0964 17.3037 15.1069 17.2673 15.1259C17.2309 15.145 17.1993 15.1721 17.175 15.2052Z" fill="#6DD627" stroke="#45413C" stroke-width="0.5" stroke-linecap="round" stroke-linejoin="round"/>
<path id="Vector_9" d="M15.4999 5.85487L15.2349 6.67487C15.2235 6.70975 15.22 6.74669 15.2246 6.78307C15.2291 6.81946 15.2416 6.85439 15.2612 6.88541C15.2808 6.91642 15.3069 6.94275 15.3378 6.96253C15.3687 6.98231 15.4035 6.99506 15.4399 6.99987L16.5599 7.15987C16.6031 7.16453 16.6468 7.15827 16.687 7.14167C16.7271 7.12508 16.7625 7.09867 16.7899 7.06487L17.1649 6.56487C17.1885 6.5347 17.2048 6.49939 17.2123 6.46179C17.2199 6.42418 17.2185 6.38534 17.2083 6.34837C17.1981 6.3114 17.1793 6.27735 17.1535 6.24895C17.1278 6.22055 17.0957 6.19861 17.0599 6.18487L15.8349 5.68487C15.8019 5.67167 15.7664 5.66566 15.7309 5.66724C15.6954 5.66882 15.6606 5.67797 15.6289 5.69405C15.5972 5.71014 15.5693 5.73281 15.547 5.76054C15.5248 5.78827 15.5087 5.82043 15.4999 5.85487Z" fill="#00B8F0" stroke="#45413C" stroke-width="0.5" stroke-linecap="round" stroke-linejoin="round"/>
</g>
</g>
</svg>
