<svg xmlns="http://www.w3.org/2000/svg" width="39" height="32" viewBox="0 0 39 32" fill="none">
	<g clip-path="url(#clip0_370_5296)">
		<path d="M19.1615 0H19.1184C17.0508 0 15.6724 3.72075 16.5985 6.87906C18.1277 12.0492 21.2506 15.6401 24.8689 15.7915H30.8347C26.5057 15.6185 22.909 10.5133 21.8536 3.65585C21.5521 1.51426 20.4537 0 19.1615 0Z" fill="#C5DDFF"/>
		<path d="M13.3032 15.791H7.3374C11.6664 15.9641 15.2631 21.0693 16.3185 27.9267C16.6415 30.0683 17.7399 31.5826 19.0322 31.5826H19.0752C21.1428 31.5826 22.5212 27.8618 21.5951 24.7035C20.0444 19.5118 16.9215 15.9424 13.3032 15.791Z" fill="#C5DDFF"/>
		<path d="M19.0322 0C17.7399 0 16.6415 1.51426 16.3185 3.65585C15.2847 10.5133 11.6664 15.6185 7.3374 15.7915H13.3032C16.9215 15.6401 20.0229 12.0492 21.5736 6.87906C22.4997 3.72075 21.1428 0 19.0537 0L19.0322 0Z" fill="#83B0FF"/>
		<path d="M0.187083 22.3457C-0.932858 27.3428 3.48229 30.3713 4.73146 25.4824C6.17446 19.8797 9.40506 15.9426 13.2172 15.7695H7.22979C4.98991 15.8561 2.94386 17.2838 1.32856 19.5768C0.790128 20.3772 0.402456 21.329 0.187083 22.3457Z" fill="#4861F7"/>
		<path d="M24.8688 15.791C21.2506 15.9424 18.1492 19.5334 16.5985 24.7035C15.6724 27.8618 17.0293 31.5826 19.1184 31.5826H19.1614C20.4537 31.5826 21.5521 30.0683 21.8751 27.9267C22.9089 21.0693 26.5272 15.9641 30.8562 15.791H24.8688Z" fill="#3054E5"/>
		<path d="M38.0066 9.23725C39.1266 4.2402 34.7114 1.21168 33.4623 6.10057C32.0193 11.7033 28.7671 15.6404 24.9766 15.7918H30.9424C33.1823 15.7053 35.2283 14.2776 36.8436 11.9845C37.4036 11.1842 37.7913 10.2323 38.0066 9.23725Z" fill="#83B0FF"/>
	</g>
	<defs>
		<clipPath id="clip0_370_5296">
			<rect width="39" height="32" fill="white"/>
		</clipPath>
	</defs>
</svg>
