<svg xmlns="http://www.w3.org/2000/svg" width="58" height="8" viewBox="0 0 58 8" fill="none">
	<path d="M0 7.74646V0.726562H1.35685V7.74646H0ZM1.42146 3.61449H3.96287V0.726562H5.31972V7.74646H3.96287V4.59195H1.72299L1.42146 3.61449Z" fill="#3054E5"/>
	<path d="M7.30127 0.726562H8.93811L10.2519 3.25906L11.5226 0.726562H13.1163L10.9195 4.90296V7.72424H9.56269V4.79188L7.30127 0.726562Z" fill="#3054E5"/>
	<path d="M16.6269 7.72351H15.27V0.748047H16.6269V7.72351Z" fill="#3054E5"/>
	<path d="M18.9746 7.74646V0.726562H20.1592C20.4607 0.726562 20.6761 0.770992 20.7837 0.837637C20.913 0.926496 21.0637 1.17086 21.2145 1.5263L22.9806 5.81377V0.726562H24.2728V7.74646H22.9806C22.8083 7.74646 22.636 7.67981 22.5067 7.54652C22.3775 7.43545 22.2267 7.14666 22.0544 6.70236L20.2884 2.43711V7.76867H18.9746V7.74646Z" fill="#3054E5"/>
	<path d="M26.5772 6.74606H29.2048C29.7001 6.74606 30.0016 6.6572 30.1093 6.50169C30.1955 6.39062 30.2385 6.12404 30.2385 5.70196C30.2385 5.12437 30.1955 4.76893 30.1093 4.68008C30.0447 4.59122 29.8724 4.54678 29.6355 4.54678H28.171C27.5248 4.54678 27.0941 4.4135 26.8572 4.14692C26.6633 3.90256 26.5557 3.48047 26.5557 2.9251C26.5557 2.68074 26.5557 2.50302 26.5557 2.43637C26.5557 2.05872 26.5987 1.76993 26.6849 1.57C26.8356 1.23677 27.0726 0.992408 27.3956 0.881334C27.6541 0.792475 28.0202 0.748047 28.494 0.748047H30.4108C30.9062 0.748047 31.2293 1.08127 31.38 1.7255H28.6879C28.3433 1.7255 28.1064 1.79214 28.0202 1.94765C27.9341 2.05872 27.9125 2.30309 27.9125 2.68074C27.9125 2.99175 27.9341 3.21389 27.9987 3.34718C28.0633 3.50269 28.2786 3.56933 28.6448 3.56933H30.2385C30.9493 3.56933 31.38 3.83591 31.5308 4.39128C31.5739 4.59122 31.6169 4.99108 31.6169 5.56867C31.6169 6.19069 31.5954 6.59055 31.5523 6.76827C31.4662 7.10149 31.2293 7.34586 30.8416 7.52358C30.5616 7.65687 30.1093 7.72351 29.5278 7.72351H27.5895C27.051 7.72351 26.728 7.4125 26.5772 6.74606Z" fill="#3054E5"/>
	<path d="M35.4291 7.72351H34.0723V0.748047H35.4291V7.72351Z" fill="#3054E5"/>
	<path d="M42.9022 1.74777H40.5762C40.1239 1.74777 39.844 1.76999 39.7793 1.7922C39.6286 1.85884 39.4778 1.9477 39.3917 2.12542C39.2194 2.36979 39.1332 2.65858 39.1332 3.01402V5.34658C39.1332 5.74644 39.1763 6.07967 39.284 6.30182C39.3271 6.41289 39.4132 6.52396 39.5209 6.61282C39.6932 6.74611 39.8655 6.81276 40.0809 6.81276H40.7701C41.05 6.81276 41.2439 6.7239 41.3946 6.54618C41.5023 6.41289 41.5454 6.25739 41.5454 6.07967V4.96892H40.2747L39.9086 3.99147H42.9022V6.36846C42.9022 6.96826 42.6869 7.36813 42.2561 7.56806C41.89 7.74578 41.4377 7.81243 40.9208 7.81243H40.0163C38.9825 7.81243 38.3148 7.54585 38.0348 6.99048C37.8625 6.63504 37.7764 6.16853 37.7764 5.59094V3.19174C37.7764 2.19207 38.0133 1.50341 38.5086 1.14797C38.7671 0.948037 39.1548 0.836961 39.6717 0.836961H41.9331C42.4284 0.770316 42.7515 1.08133 42.9022 1.74777Z" fill="#3054E5"/>
	<path d="M45.0991 7.74646V0.726562H46.456V7.74646H45.0991ZM46.5206 3.61449H49.062V0.726562H50.4188V7.74646H49.062V4.59195H46.8221L46.5206 3.61449Z" fill="#3054E5"/>
	<path d="M52.4219 1.70402V0.726562H58V1.70402H52.4219ZM54.4895 7.74646V1.83731L55.8463 2.23717V7.74646H54.4895Z" fill="#3054E5"/>
</svg>
