<svg width="58" height="44" viewBox="0 0 58 44" fill="none" xmlns="http://www.w3.org/2000/svg">
<g id="LOGO" clip-path="url(#clip0_4_870)">
<g id="Group">
<path id="Vector" d="M0 43.9784V37.1426H1.35685V43.9784H0ZM1.42146 39.9548H3.96287V37.1426H5.31972V43.9784H3.96287V40.9066H1.72299L1.42146 39.9548Z" fill="#3054E5"/>
<path id="Vector_2" d="M7.30127 37.1426H8.93811L10.2519 39.6087L11.5226 37.1426H13.1163L10.9195 41.2094V43.9567H9.56269V41.1013L7.30127 37.1426Z" fill="#3054E5"/>
<path id="Vector_3" d="M16.6269 43.9568H15.27V37.1643H16.6269V43.9568Z" fill="#3054E5"/>
<path id="Vector_4" d="M18.9746 43.9784V37.1426H20.1592C20.4607 37.1426 20.6761 37.1858 20.7837 37.2507C20.913 37.3373 21.0637 37.5752 21.2145 37.9213L22.9806 42.0964V37.1426H24.2728V43.9784H22.9806C22.8083 43.9784 22.636 43.9135 22.5067 43.7837C22.3775 43.6755 22.2267 43.3943 22.0544 42.9617L20.2884 38.8083V44H18.9746V43.9784Z" fill="#3054E5"/>
<path id="Vector_5" d="M26.5772 43.005H29.2048C29.7001 43.005 30.0016 42.9185 30.1093 42.7671C30.1955 42.6589 30.2385 42.3993 30.2385 41.9883C30.2385 41.4259 30.1955 41.0797 30.1093 40.9932C30.0447 40.9067 29.8724 40.8634 29.6355 40.8634H28.171C27.5248 40.8634 27.0941 40.7336 26.8572 40.474C26.6633 40.2361 26.5557 39.8251 26.5557 39.2843C26.5557 39.0463 26.5557 38.8733 26.5557 38.8084C26.5557 38.4406 26.5987 38.1594 26.6849 37.9647C26.8356 37.6402 27.0726 37.4023 27.3956 37.2941C27.6541 37.2076 28.0202 37.1643 28.494 37.1643H30.4108C30.9062 37.1643 31.2293 37.4888 31.38 38.1161H28.6879C28.3433 38.1161 28.1064 38.181 28.0202 38.3324C27.9341 38.4406 27.9125 38.6786 27.9125 39.0463C27.9125 39.3492 27.9341 39.5655 27.9987 39.6953C28.0633 39.8467 28.2786 39.9116 28.6448 39.9116H30.2385C30.9493 39.9116 31.38 40.1712 31.5308 40.712C31.5739 40.9067 31.6169 41.2961 31.6169 41.8585C31.6169 42.4642 31.5954 42.8536 31.5523 43.0266C31.4662 43.3511 31.2293 43.5891 30.8416 43.7621C30.5616 43.8919 30.1093 43.9568 29.5278 43.9568H27.5895C27.051 43.9568 26.728 43.654 26.5772 43.005Z" fill="#3054E5"/>
<path id="Vector_6" d="M35.4291 43.9568H34.0723V37.1643H35.4291V43.9568Z" fill="#3054E5"/>
<path id="Vector_7" d="M42.9022 38.1377H40.5762C40.1239 38.1377 39.844 38.1593 39.7793 38.181C39.6286 38.2459 39.4778 38.3324 39.3917 38.5055C39.2194 38.7434 39.1332 39.0246 39.1332 39.3708V41.6421C39.1332 42.0315 39.1763 42.356 39.284 42.5723C39.3271 42.6805 39.4132 42.7886 39.5209 42.8752C39.6932 43.005 39.8655 43.0699 40.0809 43.0699H40.7701C41.05 43.0699 41.2439 42.9833 41.3946 42.8103C41.5023 42.6805 41.5454 42.5291 41.5454 42.356V41.2744H40.2747L39.9086 40.3226H42.9022V42.6372C42.9022 43.2213 42.6869 43.6107 42.2561 43.8054C41.89 43.9784 41.4377 44.0433 40.9208 44.0433H40.0163C38.9825 44.0433 38.3148 43.7837 38.0348 43.2429C37.8625 42.8968 37.7764 42.4425 37.7764 41.8801V39.5438C37.7764 38.5704 38.0133 37.8998 38.5086 37.5536C38.7671 37.359 39.1548 37.2508 39.6717 37.2508H41.9331C42.4284 37.1859 42.7515 37.4887 42.9022 38.1377Z" fill="#3054E5"/>
<path id="Vector_8" d="M45.0991 43.9784V37.1426H46.456V43.9784H45.0991ZM46.5206 39.9548H49.062V37.1426H50.4188V43.9784H49.062V40.9066H46.8221L46.5206 39.9548Z" fill="#3054E5"/>
<path id="Vector_9" d="M52.4219 38.0944V37.1426H58V38.0944H52.4219ZM54.4895 43.9784V38.2242L55.8463 38.6136V43.9784H54.4895Z" fill="#3054E5"/>
</g>
<path id="Vector_10" d="M29.1615 0H29.1184C27.0508 0 25.6724 3.72075 26.5985 6.87906C28.1277 12.0492 31.2506 15.6401 34.8689 15.7915H40.8347C36.5057 15.6185 32.909 10.5133 31.8536 3.65585C31.5521 1.51426 30.4537 0 29.1615 0Z" fill="#C5DDFF"/>
<path id="Vector_11" d="M23.3032 15.7915H17.3374C21.6664 15.9646 25.2631 21.0698 26.3185 27.9272C26.6415 30.0688 27.7399 31.583 29.0322 31.583H29.0752C31.1428 31.583 32.5212 27.8623 31.5951 24.704C30.0444 19.5123 26.9215 15.9429 23.3032 15.7915Z" fill="#C5DDFF"/>
<path id="Vector_12" d="M29.0322 0C27.7399 0 26.6415 1.51426 26.3185 3.65585C25.2847 10.5133 21.6664 15.6185 17.3374 15.7915H23.3032C26.9215 15.6401 30.0229 12.0492 31.5736 6.87906C32.4997 3.72075 31.1428 0 29.0537 0L29.0322 0Z" fill="#83B0FF"/>
<path id="Vector_13" d="M10.1871 22.3462C9.06714 27.3433 13.4823 30.3718 14.7315 25.4829C16.1745 19.8801 19.4051 15.9431 23.2172 15.77H17.2298C14.9899 15.8565 12.9439 17.2843 11.3286 19.5773C10.7901 20.3777 10.4025 21.3295 10.1871 22.3462Z" fill="#4861F7"/>
<path id="Vector_14" d="M34.8688 15.7915C31.2506 15.9429 28.1492 19.5339 26.5985 24.704C25.6724 27.8623 27.0293 31.583 29.1184 31.583H29.1614C30.4537 31.583 31.5521 30.0688 31.8751 27.9272C32.9089 21.0698 36.5272 15.9646 40.8562 15.7915H34.8688Z" fill="#3054E5"/>
<path id="Vector_15" d="M48.0066 9.237C49.1266 4.23995 44.7114 1.21144 43.4623 6.10033C42.0193 11.7031 38.7671 15.6402 34.9766 15.7916H40.9424C43.1823 15.705 45.2283 14.2773 46.8436 11.9843C47.4036 11.1839 47.7913 10.2321 48.0066 9.237Z" fill="#83B0FF"/>
</g>
<defs>
<clipPath id="clip0_4_870">
<rect width="58" height="44" fill="white"/>
</clipPath>
</defs>
</svg>
