<svg width="24" height="24" viewBox="0 0 24 24" fill="none" xmlns="http://www.w3.org/2000/svg">
<g id="scroll--Streamline-Emoji">
<g id="Group">
<path id="Vector" opacity="0.15" d="M4.90479 22.5749C4.90479 22.6964 5.0883 22.8167 5.44486 22.9289C5.80142 23.0411 6.32403 23.1431 6.98286 23.229C7.64169 23.3149 8.42384 23.383 9.28465 23.4295C10.1455 23.476 11.0681 23.4999 11.9998 23.4999C12.9315 23.4999 13.8541 23.476 14.7149 23.4295C15.5757 23.383 16.3579 23.3149 17.0167 23.229C17.6755 23.1431 18.1982 23.0411 18.5547 22.9289C18.9113 22.8167 19.0948 22.6964 19.0948 22.5749C19.0948 22.4534 18.9113 22.3331 18.5547 22.2209C18.1982 22.1087 17.6755 22.0067 17.0167 21.9208C16.3579 21.8349 15.5757 21.7668 14.7149 21.7203C13.8541 21.6738 12.9315 21.6499 11.9998 21.6499C11.0681 21.6499 10.1455 21.6738 9.28465 21.7203C8.42384 21.7668 7.64169 21.8349 6.98286 21.9208C6.32403 22.0067 5.80142 22.1087 5.44486 22.2209C5.0883 22.3331 4.90479 22.4534 4.90479 22.5749Z" fill="#45413C"/>
<path id="Vector_2" d="M5.22482 3.74512V18.2901C5.22482 19.1151 5.01982 19.7901 4.19482 19.7901H17.9698C18.7948 19.7901 18.9998 19.1251 18.9998 18.2901V3.74512H5.22482Z" fill="#FFF5E3"/>
<path id="Vector_3" d="M5.2251 3.74512H19.0001V6.44512H5.2251V3.74512Z" fill="#F7E5C6"/>
<path id="Vector_4" d="M18.9998 18.2901C18.9998 19.1151 18.7948 19.7901 17.9698 19.7901H4.19482C5.01982 19.7901 5.22482 19.1251 5.22482 18.2901V3.74512H18.9998V18.2901Z" stroke="#45413C" stroke-width="0.5" stroke-linecap="round" stroke-linejoin="round"/>
<path id="Vector_5" d="M16.79 18.2898V17.8848H3V18.2898C3 19.1148 3.36 19.7898 4.185 19.7898H17.97C17.15 19.7798 16.79 19.1148 16.79 18.2898Z" fill="#F7E5C6" stroke="#45413C" stroke-width="0.5" stroke-linecap="round" stroke-linejoin="round"/>
<path id="Vector_6" d="M4.71006 2.56494C4.28506 2.56494 3.93506 3.09494 3.93506 3.74494C3.93506 4.39494 4.28506 4.92994 4.71006 4.92994H18.2101V2.56494H4.71006Z" fill="#F7E5C6"/>
<path id="Vector_7" d="M4.71006 2.56494C4.28506 2.56494 3.93506 3.09494 3.93506 3.74494C3.93524 3.92703 3.96566 4.10782 4.02506 4.27994C4.15006 3.89494 4.41006 3.62994 4.71006 3.62994H18.2101V2.56494H4.71006Z" fill="#FFF5E3"/>
<path id="Vector_8" d="M4.71006 2.56494C4.28506 2.56494 3.93506 3.09494 3.93506 3.74494C3.93506 4.39494 4.28506 4.92994 4.71006 4.92994H18.2101V2.56494H4.71006Z" stroke="#45413C" stroke-width="0.5" stroke-linecap="round" stroke-linejoin="round"/>
<path id="Vector_9" d="M17.46 3.74494C17.46 3.8999 17.4799 4.05334 17.5186 4.19651C17.5573 4.33967 17.614 4.46975 17.6855 4.57933C17.757 4.6889 17.8419 4.77582 17.9353 4.83512C18.0287 4.89442 18.1288 4.92494 18.23 4.92494C18.3311 4.92494 18.4312 4.89442 18.5246 4.83512C18.618 4.77582 18.7029 4.6889 18.7744 4.57933C18.8459 4.46975 18.9027 4.33967 18.9413 4.19651C18.98 4.05334 19 3.8999 19 3.74494C19 3.58998 18.98 3.43654 18.9413 3.29338C18.9027 3.15021 18.8459 3.02013 18.7744 2.91056C18.7029 2.80098 18.618 2.71406 18.5246 2.65476C18.4312 2.59546 18.3311 2.56494 18.23 2.56494C18.1288 2.56494 18.0287 2.59546 17.9353 2.65476C17.8419 2.71406 17.757 2.80098 17.6855 2.91056C17.614 3.02013 17.5573 3.15021 17.5186 3.29338C17.4799 3.43654 17.46 3.58998 17.46 3.74494Z" fill="#F0D5A8"/>
<path id="Vector_10" d="M18.23 3.49994C18.55 3.49994 18.82 3.79494 18.94 4.21994C18.9818 4.06513 19.002 3.90528 19 3.74494C19 3.09494 18.655 2.56494 18.23 2.56494C17.805 2.56494 17.46 3.09494 17.46 3.74494C17.4589 3.90194 17.4791 4.05836 17.52 4.20994C17.635 3.78494 17.91 3.49994 18.23 3.49994Z" fill="#DEBB7E"/>
<path id="Vector_11" d="M17.46 3.74494C17.46 3.8999 17.4799 4.05334 17.5186 4.19651C17.5573 4.33967 17.614 4.46975 17.6855 4.57933C17.757 4.6889 17.8419 4.77582 17.9353 4.83512C18.0287 4.89442 18.1288 4.92494 18.23 4.92494C18.3311 4.92494 18.4312 4.89442 18.5246 4.83512C18.618 4.77582 18.7029 4.6889 18.7744 4.57933C18.8459 4.46975 18.9027 4.33967 18.9413 4.19651C18.98 4.05334 19 3.8999 19 3.74494C19 3.58998 18.98 3.43654 18.9413 3.29338C18.9027 3.15021 18.8459 3.02013 18.7744 2.91056C18.7029 2.80098 18.618 2.71406 18.5246 2.65476C18.4312 2.59546 18.3311 2.56494 18.23 2.56494C18.1288 2.56494 18.0287 2.59546 17.9353 2.65476C17.8419 2.71406 17.757 2.80098 17.6855 2.91056C17.614 3.02013 17.5573 3.15021 17.5186 3.29338C17.4799 3.43654 17.46 3.58998 17.46 3.74494V3.74494Z" stroke="#45413C" stroke-width="0.5" stroke-linecap="round" stroke-linejoin="round"/>
<path id="Vector_12" d="M7.14014 7.0498H14.0401" stroke="#45413C" stroke-width="0.5" stroke-linecap="round" stroke-linejoin="round"/>
<path id="Vector_13" d="M7.14014 13.7949H14.0401" stroke="#45413C" stroke-width="0.5" stroke-linecap="round" stroke-linejoin="round"/>
<path id="Vector_14" d="M7.14014 15.6099H15.1551" stroke="#45413C" stroke-width="0.5" stroke-linecap="round" stroke-linejoin="round"/>
<path id="Vector_15" d="M7.14014 8.74512H16.5851" stroke="#45413C" stroke-width="0.5" stroke-linecap="round" stroke-linejoin="round"/>
<path id="Vector_16" d="M7.14014 10.52H16.5851" stroke="#45413C" stroke-width="0.5" stroke-linecap="round" stroke-linejoin="round"/>
</g>
</g>
</svg>
