<svg width="1em" height="1em" viewBox="0 0 24 24" fill="none" xmlns="http://www.w3.org/2000/svg">
<path fill-rule="evenodd" clip-rule="evenodd" d="M2.54199 17.0007C2.54199 17.0007 6.42223 12.216 8.53155 12.5434C10.0695 12.7821 12.7892 17.9238 13.9639 18.3937C18.1427 20.0652 22.6 11.7076 22.6 11.7076L21.1767 15.4685V17.0007L18.8922 19.2575C18.8922 19.2575 18.3705 20.8482 17.6134 21.2955C16.8562 21.7428 14.8832 21.6259 14.8832 21.6259C14.8832 21.6259 13.9272 22.5653 12.0138 22.4906C10.1004 22.416 6.41431 21.2955 6.41431 21.2955L5.60641 19.2575L2.54199 17.0007Z" fill="currentColor"/>
<path fill-rule="evenodd" clip-rule="evenodd" d="M22.3215 9.22809L23.8537 11.5125C24.0488 11.8189 24.0488 12.1532 23.8537 12.4318L22.3215 14.7441L22.4887 17.5299C22.5165 17.8363 22.3494 18.1706 22.0429 18.3099L19.5914 19.5636L18.3378 22.0151C18.1985 22.2937 17.892 22.4887 17.5577 22.4608L14.7998 22.3215L12.4875 23.8537C12.3482 23.9373 12.1811 23.993 12.0139 23.993C11.8468 23.993 11.6796 23.9373 11.5403 23.8537L9.22809 22.3215L6.47011 22.4608C6.16367 22.4887 5.82937 22.3215 5.69007 22.0151L4.43645 19.5636L1.98491 18.3099C1.70633 18.1428 1.51132 17.8363 1.53918 17.502L1.67847 14.7441L0.146257 12.4318C-0.0487522 12.1532 -0.0487522 11.7911 0.146257 11.5125L1.67847 9.20023L1.53918 6.44225C1.51132 6.13581 1.67847 5.80151 1.98491 5.66222L4.43645 4.40859L5.69007 1.95705C5.85723 1.67847 6.16367 1.48346 6.49797 1.53918L9.25595 1.67847L11.5403 0.146257C11.8189 -0.0487522 12.1811 -0.0487522 12.4597 0.146257L14.7719 1.67847L17.5577 1.51132C17.8642 1.48346 18.1985 1.65061 18.3378 1.95705L19.5636 4.43645L22.0151 5.69007C22.2937 5.82937 22.4887 6.13581 22.4608 6.47011L22.3215 9.22809ZM20.6501 14.5769C20.6501 14.3819 20.6779 14.2147 20.7894 14.0476L22.1544 11.9582L20.7894 9.89669C20.6779 9.7574 20.6501 9.56239 20.6501 9.39524L20.6779 6.9437L18.4771 5.82937C18.3378 5.74579 18.1985 5.63436 18.1149 5.46721L17.0006 3.2664L14.5212 3.40569C14.3541 3.40569 14.1591 3.37783 14.0198 3.2664L11.9582 1.90134L9.89672 3.2664C9.75743 3.37783 9.56242 3.40569 9.39527 3.40569L6.91588 3.2664L5.80154 5.46721C5.71797 5.6065 5.60653 5.74579 5.43938 5.82937L3.23857 6.9437L3.37786 9.4231C3.37786 9.59025 3.35 9.78526 3.23857 9.92455L1.87351 11.9861L3.26643 14.1033C3.37786 14.2426 3.40572 14.4376 3.40572 14.6048L3.26643 17.0842L5.46724 18.1985C5.60653 18.2821 5.74582 18.3935 5.8294 18.5606L6.94374 20.7615L9.42313 20.6222H9.47885C9.646 20.6222 9.81315 20.6779 9.95244 20.7615L12.014 22.1265L14.1033 20.7615C14.2426 20.65 14.4376 20.6222 14.6048 20.6222L17.112 20.7336L18.2264 18.5328C18.31 18.3935 18.4214 18.2542 18.5885 18.1706L20.7894 17.0563L20.6501 14.5769Z" fill="#1E1F24"/>
<path fill-rule="evenodd" clip-rule="evenodd" d="M11.4567 8.78231C11.4567 10.3981 10.1474 11.7074 8.53158 11.7074C6.91579 11.7074 5.60645 10.3981 5.60645 8.78231C5.60645 7.16652 6.91579 5.85718 8.53158 5.85718C10.1474 5.85718 11.4567 7.16652 11.4567 8.78231ZM9.78514 8.78231C9.78514 8.08585 9.22798 7.52868 8.53152 7.52868C7.83506 7.52868 7.27789 8.08585 7.27789 8.78231C7.27789 9.47877 7.83506 10.0359 8.53152 10.0359C9.22798 10.0359 9.78514 9.47877 9.78514 8.78231Z" fill="#1E1F24"/>
<path fill-rule="evenodd" clip-rule="evenodd" d="M8.5317 7.52869C9.22816 7.52869 9.78533 8.08585 9.78533 8.78231C9.78533 9.47877 9.22816 10.0359 8.5317 10.0359C7.83524 10.0359 7.27808 9.47877 7.27808 8.78231C7.27808 8.08585 7.83524 7.52869 8.5317 7.52869Z" fill="#375AE5"/>
<path fill-rule="evenodd" clip-rule="evenodd" d="M12.2925 15.4683C12.2925 13.8526 13.6018 12.5432 15.2176 12.5432C16.8334 12.5432 18.1427 13.8526 18.1427 15.4683C18.1427 17.0841 16.8334 18.3935 15.2176 18.3935C13.6018 18.3935 12.2925 17.0841 12.2925 15.4683ZM13.9641 15.4683C13.9641 16.1647 14.5213 16.7219 15.2177 16.7219C15.9142 16.7219 16.4714 16.1647 16.4714 15.4683C16.4714 14.7718 15.9142 14.2147 15.2177 14.2147C14.5213 14.2147 13.9641 14.7718 13.9641 15.4683Z" fill="#1E1F24"/>
<path fill-rule="evenodd" clip-rule="evenodd" d="M15.2177 16.722C14.5213 16.722 13.9641 16.1648 13.9641 15.4683C13.9641 14.7719 14.5213 14.2147 15.2177 14.2147C15.9142 14.2147 16.4714 14.7719 16.4714 15.4683C16.4714 16.1648 15.9142 16.722 15.2177 16.722Z" fill="#7BB70C"/>
<path d="M17.3627 6.63732C17.0284 6.30302 16.499 6.30302 16.1926 6.63732L6.66503 16.1649C6.33073 16.4992 6.33073 17.0285 6.66503 17.3349C6.83218 17.5021 7.05505 17.5857 7.25006 17.5857C7.44507 17.5857 7.66793 17.5021 7.83508 17.3349L17.3627 7.80737C17.697 7.47307 17.697 6.97162 17.3627 6.63732Z" fill="#1E1F24"/>
</svg>
