<svg width="675em" height="79em" viewBox="0 0 675 79" fill="none" xmlns="http://www.w3.org/2000/svg">
<g opacity="0.03">
<path d="M0 78.1952V0H16.5165V78.1952H0ZM17.303 32.1689H48.2387V0H64.7552V78.1952H48.2387V43.0569H20.9734L17.303 32.1689Z" fill="#3054E5"/>
<path d="M88.876 0H108.801L124.793 28.2097L140.261 0H159.661L132.92 46.5212V77.9477H116.404V45.2839L88.876 0Z" fill="#3054E5"/>
<path d="M202.394 77.9489H185.877V0.248657H202.394V77.9489Z" fill="#3054E5"/>
<path d="M230.972 78.1952V0H245.391C249.061 0 251.683 0.494906 252.994 1.23726C254.567 2.22708 256.402 4.94908 258.237 8.90832L279.735 56.6668V0H295.465V78.1952H279.735C277.637 78.1952 275.54 77.4528 273.967 75.9681C272.394 74.7308 270.559 71.5139 268.461 66.5649L246.964 19.0539V78.4426H230.972V78.1952Z" fill="#3054E5"/>
<path d="M323.516 67.061H355.5C361.53 67.061 365.2 66.0712 366.511 64.339C367.56 63.1017 368.084 60.1323 368.084 55.4307C368.084 48.9969 367.56 45.0377 366.511 44.0478C365.725 43.058 363.627 42.5631 360.744 42.5631H342.916C335.051 42.5631 329.808 41.0784 326.924 38.109C324.564 35.387 323.254 30.6854 323.254 24.4991C323.254 21.7771 323.254 19.7974 323.254 19.0551C323.254 14.8484 323.778 11.6315 324.827 9.40441C326.662 5.69262 329.546 2.97062 333.478 1.73335C336.624 0.743541 341.081 0.248657 346.849 0.248657H370.182C376.211 0.248657 380.144 3.96044 381.979 11.1366H349.208C345.014 11.1366 342.13 11.8789 341.081 13.6111C340.032 14.8484 339.77 17.5704 339.77 21.7771C339.77 25.2414 340.032 27.7159 340.819 29.2007C341.605 30.9328 344.227 31.6752 348.684 31.6752H368.084C376.736 31.6752 381.979 34.6446 383.814 40.8309C384.339 43.058 384.863 47.5122 384.863 53.946C384.863 60.8746 384.601 65.3288 384.076 67.3084C383.028 71.0202 380.144 73.7422 375.425 75.7218C372.017 77.2066 366.511 77.9489 359.433 77.9489H335.838C329.284 77.9489 325.351 74.4846 323.516 67.061Z" fill="#3054E5"/>
<path d="M431.267 77.9489H414.751V0.248657H431.267V77.9489Z" fill="#3054E5"/>
<path d="M522.235 11.3834H493.921C488.416 11.3834 485.008 11.6309 484.221 11.8783C482.386 12.6207 480.551 13.6105 479.502 15.5901C477.405 18.3121 476.356 21.529 476.356 25.4882V51.4708C476.356 55.925 476.88 59.6368 478.191 62.1113C478.716 63.3486 479.764 64.5858 481.075 65.5756C483.172 67.0603 485.27 67.8027 487.891 67.8027H496.281C499.689 67.8027 502.048 66.8129 503.884 64.8333C505.194 63.3485 505.719 61.6164 505.719 59.6368V47.2641H490.251L485.794 36.3762H522.235V62.8537C522.235 69.5349 519.614 73.989 514.37 76.2161C509.913 78.1957 504.408 78.9381 498.116 78.9381H487.105C474.521 78.9381 466.394 75.9686 462.986 69.7823C460.888 65.8231 459.84 60.6266 459.84 54.1928V27.4679C459.84 16.3325 462.723 8.66144 468.753 4.70219C471.899 2.47512 476.618 1.23783 482.91 1.23783H510.438C516.468 0.495469 520.4 3.95983 522.235 11.3834Z" fill="#3054E5"/>
<path d="M548.977 78.1952V0H565.494V78.1952H548.977ZM566.28 32.1689H597.216V0H613.732V78.1952H597.216V43.0569H569.95L566.28 32.1689Z" fill="#3054E5"/>
<path d="M638.115 10.888V0H706.016V10.888H638.115ZM663.283 78.1952V12.3727L679.8 16.8268V78.1952H663.283Z" fill="#3054E5"/>
</g>
</svg>
