<svg width="16" height="15" viewBox="0 0 16 15" fill="none" xmlns="http://www.w3.org/2000/svg">
<path d="M9.27951 1.15123L9.9773 4.50733C10.0105 4.64024 10.1102 4.73993 10.2431 4.77316L13.5992 5.47096C14.7955 5.70356 15.0281 7.29853 13.998 7.89665L11.0406 9.59131C10.9409 9.65777 10.8745 9.79068 10.8745 9.9236L11.24 13.3129C11.3729 14.5092 9.94408 15.2402 9.0469 14.4427L6.52152 12.1499C6.42184 12.0502 6.28892 12.0502 6.156 12.0835L3.03251 13.5123C1.93597 14.0107 0.806197 12.881 1.30463 11.7844L2.70022 8.66091C2.76668 8.528 2.73346 8.39508 2.63377 8.2954L0.340987 5.77001C-0.456501 4.87284 0.241307 3.44401 1.43754 3.57692L4.82686 3.94244C4.95977 3.94244 5.09269 3.87598 5.15914 3.77629L6.85381 0.818945C7.45192 -0.277601 9.04691 -0.0117713 9.27951 1.15123Z" fill="#F04E64"/>
<path d="M9.87737 1.05092L10.6084 4.44025C10.6416 4.57316 10.7413 4.67284 10.8742 4.70607L14.2636 5.40388C15.4598 5.63648 15.7256 7.26468 14.6623 7.8628L11.6385 9.59069C11.5056 9.65715 11.4391 9.79006 11.4723 9.92298L11.8711 13.3788C12.004 14.6082 10.5752 15.3392 9.64477 14.5085L7.05294 12.1825C6.95325 12.0828 6.82033 12.0828 6.68742 12.1161L3.5307 13.5449C2.40092 14.0433 1.27115 12.9136 1.76958 11.7838L3.19841 8.62706C3.26487 8.49415 3.23164 8.36123 3.13196 8.26154L0.77272 5.70293C-0.0579965 4.80576 0.673032 3.3437 1.90249 3.47662L5.35827 3.84213C5.49119 3.84213 5.6241 3.77568 5.69056 3.67599L7.41845 0.65218C8.01657 -0.377908 9.61154 -0.145314 9.87737 1.05092Z" fill="#FEE35E"/>
<path d="M9.24597 1.9817L10.0102 4.80614C10.0435 4.90582 10.1431 5.00551 10.2428 5.00551L13.1337 5.43748C14.1638 5.60362 14.4296 6.93277 13.5657 7.46443L11.14 9.0594C11.0403 9.12586 11.0071 9.22554 11.0071 9.35846L11.4723 12.2161C11.6384 13.213 10.4754 13.9108 9.67796 13.2794L7.4184 11.4519C7.31872 11.3854 7.21903 11.3522 7.11934 11.4186L4.5275 12.7478C3.63033 13.213 2.60025 12.3158 2.96576 11.3522L3.99584 8.62743C4.02907 8.52775 3.99585 8.39483 3.92939 8.32838L1.86921 6.30143C1.13818 5.5704 1.66984 4.34093 2.69993 4.40739L5.59082 4.57353C5.69051 4.57353 5.82342 4.50707 5.85665 4.40739L7.15257 1.81556C7.61777 0.851925 8.98014 0.98484 9.24597 1.9817Z" fill="#FCE47E"/>
<path d="M9.57852 2.91178L9.91081 5.40393C9.91081 5.50361 9.97727 5.57007 10.077 5.6033L12.4694 6.3011C13.3334 6.5337 13.4331 7.69671 12.6356 8.09545L10.376 9.19199C10.2763 9.22522 10.2431 9.32491 10.2431 9.4246L10.3428 11.9167C10.376 12.8139 9.3127 13.2459 8.68136 12.6146L6.95347 10.8202C6.88701 10.7537 6.78732 10.7205 6.68764 10.7537L4.3284 11.6177C3.49768 11.9167 2.73342 11.0528 3.16539 10.2553L4.36163 8.06222C4.39486 7.96253 4.39486 7.86285 4.3284 7.79639L2.79989 5.8359C2.26823 5.1381 2.86634 4.14124 3.73029 4.30738L6.18921 4.77258C6.28889 4.80581 6.38858 4.73936 6.42181 4.6729L7.81741 2.61272C8.31584 1.782 9.44561 2.04783 9.57852 2.91178Z" fill="#F9EBB2"/>
</svg>
