<svg width="113" height="41" viewBox="0 0 113 41" fill="none" xmlns="http://www.w3.org/2000/svg">
<g clip-path="url(#clip0_28_2861)">
<path d="M31.6667 20.5H35L20 5.5L5 20.5H8.33333V32.1667C8.33333 33.0507 8.68452 33.8986 9.30964 34.5237C9.93477 35.1488 10.7826 35.5 11.6667 35.5H20.8333" stroke="#2C3E50" stroke-width="3" stroke-linecap="round" stroke-linejoin="round"/>
<path d="M15 35.4993V25.4993C15 24.6153 15.3512 23.7674 15.9763 23.1423C16.6014 22.5172 17.4493 22.166 18.3333 22.166H21.6667C22.5507 22.166 23.3986 22.5172 24.0237 23.1423C24.6488 23.7674 25 24.6153 25 25.4993" stroke="#2C3E50" stroke-width="3" stroke-linecap="round" stroke-linejoin="round"/>
<path d="M26.6665 32.166H36.6665" stroke="#2C3E50" stroke-width="3" stroke-linecap="round" stroke-linejoin="round"/>
<path d="M31.6665 27.166V37.166" stroke="#2C3E50" stroke-width="3" stroke-linecap="round" stroke-linejoin="round"/>
</g>
<path d="M60.7017 20.3977C60.446 21.9413 59.9418 23.2576 59.1889 24.3466C58.4408 25.4309 57.527 26.2618 56.4474 26.8395C55.3726 27.4124 54.215 27.6989 52.9744 27.6989C51.6723 27.6989 50.5549 27.3958 49.6222 26.7898C48.6894 26.179 48.017 25.3054 47.6051 24.169C47.1979 23.0327 47.1269 21.669 47.392 20.0781C47.6477 18.5393 48.1496 17.223 48.8977 16.1293C49.6458 15.0355 50.562 14.1998 51.6463 13.6222C52.7306 13.0445 53.9001 12.7557 55.1548 12.7557C56.4474 12.7557 57.5554 13.0611 58.4787 13.6719C59.4067 14.2779 60.0743 15.1515 60.4815 16.2926C60.8935 17.4337 60.9669 18.8021 60.7017 20.3977ZM58.1094 20.0781C58.2846 19.0033 58.268 18.0966 58.0597 17.358C57.8561 16.6193 57.4938 16.063 56.973 15.6889C56.4522 15.3101 55.8106 15.1207 55.0483 15.1207C54.2244 15.1207 53.4621 15.3267 52.7614 15.7386C52.0653 16.1458 51.4735 16.7424 50.9858 17.5284C50.5028 18.3144 50.1714 19.2708 49.9915 20.3977C49.8021 21.4773 49.8139 22.384 50.027 23.1179C50.2401 23.8518 50.6094 24.4058 51.1349 24.7798C51.6605 25.1491 52.3021 25.3338 53.0597 25.3338C53.8788 25.3338 54.6364 25.1302 55.3324 24.723C56.0284 24.3158 56.6179 23.7216 57.1009 22.9403C57.5885 22.1591 57.9247 21.205 58.1094 20.0781ZM69.1658 16.5909L68.832 18.5795H62.5678L62.8945 16.5909H69.1658ZM64.869 13.9773H67.44L65.7354 24.2188C65.6834 24.5644 65.6928 24.8295 65.7638 25.0142C65.8396 25.1941 65.9603 25.3172 66.1261 25.3835C66.2965 25.4498 66.4883 25.483 66.7013 25.483C66.8576 25.483 67.0044 25.4711 67.1417 25.4474C67.279 25.419 67.3879 25.3977 67.4684 25.3835L67.582 27.3935C67.4258 27.4408 67.2151 27.4929 66.9499 27.5497C66.6895 27.6065 66.377 27.6397 66.0124 27.6491C65.359 27.6634 64.7908 27.5639 64.3079 27.3509C63.8297 27.133 63.4793 26.7992 63.2567 26.3494C63.0389 25.8949 62.9892 25.3267 63.1076 24.6449L64.869 13.9773ZM73.3686 21.108L72.3175 27.5H69.7393L72.1541 12.9545H74.6754L73.7663 18.4446H73.9013C74.2469 17.8243 74.718 17.3366 75.3146 16.9815C75.916 16.6264 76.638 16.4489 77.4808 16.4489C78.2289 16.4489 78.8587 16.6075 79.37 16.9247C79.8814 17.242 80.2412 17.706 80.4496 18.3168C80.6626 18.9276 80.6982 19.6733 80.5561 20.554L79.3913 27.5H76.8132L77.907 20.9517C78.0253 20.2178 77.9283 19.6473 77.6158 19.2401C77.308 18.8281 76.8203 18.6222 76.1527 18.6222C75.6934 18.6222 75.2696 18.7216 74.8814 18.9205C74.4931 19.1146 74.1664 19.3963 73.9013 19.7656C73.6409 20.1349 73.4633 20.5824 73.3686 21.108ZM86.799 27.7131C85.7053 27.7131 84.8009 27.4858 84.0859 27.0312C83.371 26.572 82.8691 25.9233 82.5803 25.0852C82.2962 24.2424 82.2488 23.2505 82.4382 22.1094C82.6229 20.9872 82.9993 20.0024 83.5675 19.1548C84.1357 18.3026 84.8459 17.6397 85.6982 17.1662C86.5552 16.688 87.5021 16.4489 88.5391 16.4489C89.2114 16.4489 89.8293 16.5578 90.3928 16.7756C90.9562 16.9886 91.4321 17.3201 91.8203 17.7699C92.2086 18.2197 92.4761 18.7926 92.6229 19.4886C92.7696 20.1799 92.7625 21.0038 92.6016 21.9602L92.4808 22.7486H83.532L83.8089 21.0156H90.2862C90.3714 20.5232 90.343 20.0852 90.201 19.7017C90.0589 19.3134 89.8222 19.008 89.4908 18.7855C89.1593 18.563 88.745 18.4517 88.2479 18.4517C87.7412 18.4517 87.2678 18.5819 86.8274 18.8423C86.3918 19.098 86.0249 19.4295 85.7266 19.8366C85.4283 20.2438 85.2389 20.6723 85.1584 21.1222L84.8672 22.7841C84.763 23.4659 84.7867 24.0223 84.9382 24.4531C85.0897 24.884 85.3549 25.2012 85.7337 25.4048C86.1125 25.6084 86.5907 25.7102 87.1683 25.7102C87.5471 25.7102 87.8975 25.6581 88.2195 25.554C88.5414 25.4498 88.8279 25.2936 89.0788 25.0852C89.3345 24.8722 89.5476 24.6117 89.718 24.304L92.0689 24.5739C91.8085 25.2083 91.4273 25.7623 90.9254 26.2358C90.4235 26.7045 89.8222 27.0691 89.1214 27.3295C88.4254 27.5852 87.6513 27.7131 86.799 27.7131ZM93.8729 27.5L95.6911 16.5909H98.1839L97.8786 18.4091H97.9922C98.2905 17.7794 98.7119 17.294 99.2564 16.9531C99.8056 16.6075 100.393 16.4347 101.018 16.4347C101.165 16.4347 101.323 16.4418 101.494 16.456C101.664 16.4654 101.811 16.482 101.934 16.5057L101.536 18.8707C101.427 18.8329 101.257 18.7997 101.025 18.7713C100.798 18.7382 100.573 18.7216 100.35 18.7216C99.8814 18.7216 99.4458 18.8234 99.0433 19.027C98.6456 19.2259 98.3094 19.5028 98.0348 19.858C97.7602 20.2131 97.5826 20.6226 97.5021 21.0866L96.4439 27.5H93.8729ZM111.772 19.4744L109.407 19.7301C109.384 19.4886 109.31 19.2637 109.187 19.0554C109.064 18.8471 108.879 18.6813 108.633 18.5582C108.392 18.4304 108.079 18.3665 107.696 18.3665C107.137 18.3665 106.647 18.492 106.225 18.7429C105.804 18.9938 105.565 19.3158 105.508 19.7088C105.456 20.0024 105.527 20.2415 105.721 20.4261C105.915 20.6108 106.275 20.767 106.801 20.8949L108.605 21.2926C109.599 21.5152 110.314 21.875 110.75 22.3722C111.19 22.8693 111.344 23.5204 111.211 24.3253C111.098 24.9976 110.804 25.5895 110.331 26.1009C109.857 26.6075 109.251 27.0028 108.512 27.2869C107.779 27.571 106.964 27.7131 106.069 27.7131C104.71 27.7131 103.664 27.4313 102.93 26.8679C102.201 26.2997 101.839 25.5185 101.843 24.5241L104.372 24.2827C104.4 24.7751 104.573 25.1468 104.89 25.3977C105.208 25.6439 105.648 25.7694 106.211 25.7741C106.846 25.7789 107.381 25.6463 107.816 25.3764C108.257 25.1018 108.505 24.768 108.562 24.375C108.609 24.0814 108.536 23.8423 108.342 23.6577C108.153 23.473 107.814 23.3262 107.326 23.2173L105.537 22.8267C104.523 22.6042 103.801 22.2277 103.37 21.6974C102.944 21.1624 102.8 20.4877 102.937 19.6733C103.051 19.0104 103.328 18.4399 103.768 17.9616C104.213 17.4787 104.784 17.107 105.48 16.8466C106.176 16.5814 106.955 16.4489 107.816 16.4489C109.114 16.4489 110.092 16.7211 110.75 17.2656C111.408 17.8101 111.749 18.5464 111.772 19.4744Z" fill="black"/>
<defs>
<clipPath id="clip0_28_2861">
<rect width="40" height="40" fill="white" transform="translate(0 0.5)"/>
</clipPath>
</defs>
</svg>
