<svg width="127em" height="49em" viewBox="0 0 127 49" fill="none" xmlns="http://www.w3.org/2000/svg">
<path d="M27.1506 12.384C27.1253 12.207 26.9736 12.1059 26.8472 12.1059C26.7208 12.1059 24.2181 12.0554 24.2181 12.0554C24.2181 12.0554 22.1199 10.033 21.9177 9.80545C21.7154 9.60321 21.3109 9.65377 21.1593 9.70433C21.1593 9.70433 20.7548 9.83073 20.0975 10.033C19.9964 9.67905 19.8194 9.24929 19.5919 8.79426C18.8588 7.37858 17.7465 6.62019 16.4319 6.62019C16.3308 6.62019 16.255 6.62019 16.1538 6.64547C16.1033 6.59491 16.078 6.54435 16.0274 6.51907C15.446 5.91235 14.7129 5.60899 13.8281 5.63427C12.1343 5.68483 10.4406 6.92355 9.05019 9.09762C8.08956 10.6397 7.35644 12.561 7.12892 14.0525C5.18237 14.6592 3.81726 15.0889 3.7667 15.0889C2.78079 15.3923 2.75551 15.4176 2.62911 16.3529C2.57855 17.0608 0 37.0066 0 37.0066L21.6396 40.748L31.0184 38.4223C30.9931 38.4223 27.1759 12.561 27.1506 12.384ZM19.0105 10.3869C18.5049 10.5386 17.9487 10.7155 17.342 10.9178C17.342 10.0583 17.2156 8.84482 16.8364 7.83362C18.1257 8.03586 18.7577 9.50209 19.0105 10.3869ZM16.2044 11.2464C15.0668 11.6003 13.8281 11.9795 12.5894 12.3587C12.9433 11.0189 13.6006 9.70433 14.4095 8.81954C14.7129 8.4909 15.1426 8.13698 15.623 7.93474C16.1286 8.92066 16.2297 10.311 16.2044 11.2464ZM13.8787 6.77187C14.2831 6.77187 14.6118 6.84771 14.8898 7.04995C14.4348 7.27746 13.9798 7.63138 13.5753 8.08642C12.4883 9.24929 11.654 11.0442 11.3254 12.7885C10.2889 13.1171 9.27771 13.4205 8.36764 13.6986C8.97435 10.943 11.2748 6.84771 13.8787 6.77187Z" fill="#95BF47"/>
<path d="M26.8473 12.1066C26.7209 12.1066 24.2182 12.056 24.2182 12.056C24.2182 12.056 22.12 10.0336 21.9177 9.80609C21.8419 9.73025 21.7408 9.67969 21.6396 9.67969V40.7487L31.0185 38.4229C31.0185 38.4229 27.2012 12.5616 27.1759 12.3846C27.1254 12.2077 26.9737 12.1066 26.8473 12.1066Z" fill="#5E8E3E"/>
<path d="M16.4323 16.9337L15.3452 21.0038C15.3452 21.0038 14.1318 20.4476 12.6908 20.5487C10.5673 20.6751 10.5673 22.015 10.5673 22.3436C10.6937 24.1637 15.4716 24.5682 15.7497 28.8405C15.9519 32.2027 13.9801 34.5032 11.0982 34.6802C7.66015 34.8571 5.76416 32.8347 5.76416 32.8347L6.49728 29.7253C6.49728 29.7253 8.41855 31.1663 9.93534 31.0652C10.9213 31.0146 11.3005 30.1804 11.2499 29.6242C11.0982 27.2479 7.20511 27.3996 6.95231 23.4812C6.75008 20.1948 8.89886 16.8831 13.6515 16.5798C15.4969 16.4534 16.4323 16.9337 16.4323 16.9337Z" fill="white"/>
<path d="M43.7092 25.6047C42.6221 25.0233 42.066 24.5177 42.066 23.8351C42.066 22.9756 42.8496 22.4195 44.0631 22.4195C45.4788 22.4195 46.7427 23.0009 46.7427 23.0009L47.7287 19.9673C47.7287 19.9673 46.8186 19.2595 44.1389 19.2595C40.3975 19.2595 37.7937 21.4083 37.7937 24.4166C37.7937 26.1356 39.0071 27.4249 40.625 28.3602C41.9396 29.0933 42.3946 29.6242 42.3946 30.4079C42.3946 31.2169 41.7373 31.8741 40.5239 31.8741C38.729 31.8741 37.01 30.9388 37.01 30.9388L35.9482 33.9724C35.9482 33.9724 37.5156 35.0341 40.17 35.0341C44.0125 35.0341 46.7933 33.1381 46.7933 29.7253C46.768 27.8799 45.3776 26.5654 43.7092 25.6047Z" fill="black"/>
<path d="M59.0288 19.2091C57.1329 19.2091 55.6413 20.1192 54.5038 21.4843L54.4532 21.459L56.0964 12.8639H51.8241L47.6529 34.7563H51.9252L53.3409 27.2734C53.897 24.4421 55.3633 22.6978 56.7284 22.6978C57.689 22.6978 58.0682 23.355 58.0682 24.2904C58.0682 24.8718 58.0177 25.6049 57.8913 26.1864L56.2733 34.7563H60.5456L62.2141 25.9083C62.3911 24.9729 62.5175 23.8606 62.5175 23.1022C62.5428 20.6754 61.2788 19.2091 59.0288 19.2091Z" fill="black"/>
<path d="M72.2246 19.2088C67.0675 19.2088 63.6547 23.8603 63.6547 29.0426C63.6547 32.3543 65.7024 35.034 69.5449 35.034C74.6009 35.034 78.0137 30.5089 78.0137 25.2001C78.039 22.1412 76.2441 19.2088 72.2246 19.2088ZM70.1263 31.7729C68.6601 31.7729 68.0534 30.5341 68.0534 28.9668C68.0534 26.5146 69.3174 22.5204 71.6431 22.5204C73.1599 22.5204 73.6655 23.835 73.6655 25.099C73.6655 27.7281 72.3763 31.7729 70.1263 31.7729Z" fill="black"/>
<path d="M88.9857 19.2088C86.1038 19.2088 84.4606 21.762 84.4606 21.762H84.4101L84.6629 19.4616H80.8709C80.6939 21.0036 80.34 23.3799 80.0114 25.1495L77.0283 40.8231H81.3006L82.4888 34.4778H82.5899C82.5899 34.4778 83.4747 35.034 85.0926 35.034C90.1233 35.034 93.4097 29.8769 93.4097 24.6692C93.4097 21.7873 92.1204 19.2088 88.9857 19.2088ZM84.8904 31.8234C83.7781 31.8234 83.1208 31.1914 83.1208 31.1914L83.8286 27.1972C84.3342 24.5175 85.7246 22.7479 87.2161 22.7479C88.5307 22.7479 88.9352 23.9614 88.9352 25.099C88.9352 27.8798 87.292 31.8234 84.8904 31.8234Z" fill="black"/>
<path d="M99.5267 13.066C98.1616 13.066 97.0745 14.1531 97.0745 15.5435C97.0745 16.8075 97.8835 17.6923 99.0969 17.6923H99.1475C100.487 17.6923 101.625 16.7822 101.65 15.2148C101.65 13.9761 100.816 13.066 99.5267 13.066Z" fill="black"/>
<path d="M93.5356 34.7307H97.8079L100.715 19.5628H96.4175L93.5356 34.7307Z" fill="black"/>
<path d="M111.61 19.5378H108.627L108.779 18.83C109.032 17.3637 109.891 16.0744 111.332 16.0744C112.091 16.0744 112.698 16.302 112.698 16.302L113.532 12.9397C113.532 12.9397 112.799 12.5605 111.206 12.5605C109.689 12.5605 108.172 12.9903 107.01 13.9762C105.543 15.2149 104.861 17.0098 104.532 18.83L104.406 19.5378H102.409L101.777 22.7736H103.774L101.499 34.7563H105.771L108.046 22.7736H111.004L111.61 19.5378Z" fill="black"/>
<path d="M121.924 19.5628C121.924 19.5628 119.245 26.3125 118.057 30.0034H118.006C117.93 28.8153 116.944 19.5628 116.944 19.5628H112.444L115.023 33.492C115.074 33.7954 115.048 33.9976 114.922 34.1999C114.416 35.1605 113.582 36.0959 112.596 36.7784C111.787 37.3599 110.877 37.739 110.169 37.9918L111.357 41.6322C112.217 41.4552 114.037 40.7221 115.554 39.3064C117.5 37.4863 119.321 34.6549 121.166 30.8124L126.399 19.5628H121.924Z" fill="black"/>
</svg>
