<svg width="189" height="41" viewBox="0 0 189 41" fill="none" xmlns="http://www.w3.org/2000/svg">
<path d="M10.5637 25.2414C10.759 23.624 11.4224 22.7185 12.6724 21.7902C14.461 20.533 16.6952 21.2441 16.6952 21.2441V17.0252C17.2383 17.0113 17.7817 17.0435 18.3189 17.1214V22.5508C18.3189 22.5508 16.0854 21.8396 14.2968 23.0975C13.0475 24.0251 12.3828 24.9313 12.1881 26.5487C12.182 27.4269 12.3468 28.575 13.1058 29.5676C12.9182 29.4714 12.7269 29.3618 12.532 29.2387C10.8601 28.116 10.5556 26.4317 10.5637 25.2414ZM27.5439 9.22434C26.3136 7.87609 25.8483 6.51485 25.6801 5.55859H27.2279C27.2279 5.55859 26.9193 8.06591 29.1684 10.5316L29.1996 10.5648C28.5934 10.1835 28.0375 9.73341 27.5439 9.22434ZM35.0001 13.0467V18.3669C35.0001 18.3669 33.025 18.2896 31.5633 17.9177C29.5224 17.3977 28.2107 16.6 28.2107 16.6C28.2107 16.6 27.3045 16.0312 27.2313 15.9916V26.9777C27.2313 27.5895 27.0637 29.1171 26.553 30.3913C25.8863 32.058 24.8574 33.1521 24.6681 33.3757C24.6681 33.3757 23.4167 34.8546 21.209 35.8506C19.219 36.749 17.4718 36.7262 16.9495 36.7489C16.9495 36.7489 13.9292 36.8686 11.2114 35.1023C10.6237 34.713 10.0751 34.2721 9.57275 33.7853L9.58632 33.795C12.3048 35.5613 15.3244 35.4417 15.3244 35.4417C15.8473 35.4189 17.5945 35.4417 19.5839 34.5433C21.7896 33.5474 23.043 32.0684 23.043 32.0684C23.2302 31.8448 24.2639 30.7508 24.9279 29.0833C25.4373 27.8098 25.6062 26.2815 25.6062 25.6698V14.6849C25.6794 14.7252 26.5849 15.294 26.5849 15.294C26.5849 15.294 27.8973 16.0923 29.9382 16.6117C31.4005 16.9836 33.3749 17.0609 33.3749 17.0609V12.892C34.0505 13.0435 34.6263 13.0845 35.0001 13.0467Z" fill="#EE1D52"/>
<path d="M33.3756 12.892V17.0596C33.3756 17.0596 31.4012 16.9823 29.9388 16.6104C27.898 16.0904 26.5855 15.2927 26.5855 15.2927C26.5855 15.2927 25.68 14.7239 25.6068 14.6836V25.6711C25.6068 26.2828 25.4393 27.8111 24.9285 29.0846C24.2618 30.7521 23.2329 31.8461 23.0436 32.0697C23.0436 32.0697 21.7916 33.5487 19.5845 34.5446C17.5952 35.443 15.848 35.4202 15.325 35.443C15.325 35.443 12.3054 35.5626 9.58695 33.7963L9.57339 33.7866C9.28638 33.5087 9.01621 33.2152 8.76422 32.9077C7.89673 31.85 7.36497 30.5993 7.23135 30.2424C7.23112 30.2409 7.23112 30.2394 7.23135 30.2379C7.01634 29.6177 6.56462 28.1284 6.62634 26.6859C6.73554 24.1408 7.63085 22.5787 7.86756 22.1874C8.49448 21.1202 9.30986 20.1654 10.2774 19.3654C11.1312 18.6751 12.099 18.1259 13.141 17.7403C14.2675 17.2875 15.4738 17.0448 16.6951 17.0252V21.2441C16.6951 21.2441 14.4609 20.5356 12.673 21.7902C11.423 22.7185 10.7597 23.624 10.5643 25.2414C10.5562 26.4317 10.8607 28.116 12.5313 29.2393C12.7262 29.3629 12.9174 29.4725 13.1051 29.5683C13.3969 29.9476 13.7522 30.2782 14.1564 30.5466C15.7883 31.5796 17.1557 31.6518 18.9042 30.9809C20.0701 30.5323 20.9478 29.5215 21.3548 28.4014C21.6105 27.7019 21.6071 26.9979 21.6071 26.2698V5.55859H25.6767C25.8449 6.51485 26.3101 7.87609 27.5405 9.22434C28.0341 9.73341 28.59 10.1835 29.1961 10.5648C29.3752 10.7501 30.2909 11.666 31.4663 12.2283C32.0741 12.519 32.7147 12.7417 33.3756 12.892Z" fill="black"/>
<path d="M5.61182 28.9453V28.9486L5.7128 29.2222C5.7012 29.1904 5.66367 29.0935 5.61182 28.9453Z" fill="#69C9D0"/>
<path d="M13.141 17.7388C12.099 18.1245 11.1312 18.6737 10.2774 19.364C9.30954 20.1658 8.49436 21.1226 7.86822 22.1918C7.63151 22.5818 6.73621 24.1453 6.62701 26.6903C6.56529 28.1328 7.01701 29.6221 7.23202 30.2423C7.23178 30.2438 7.23178 30.2453 7.23202 30.2468C7.36767 30.6005 7.89739 31.8512 8.76488 32.9121C9.01687 33.2196 9.28704 33.5131 9.57405 33.791C8.65446 33.1814 7.83433 32.4445 7.14045 31.6042C6.28042 30.5556 5.75002 29.3179 5.61165 28.9525C5.61149 28.9499 5.61149 28.9473 5.61165 28.9447V28.9402C5.39597 28.3207 4.94289 26.8307 5.00597 25.3862C5.11517 22.8412 6.01047 21.2791 6.24718 20.8878C6.87313 19.8184 7.68834 18.8616 8.65636 18.06C9.51 17.3694 10.4778 16.8202 11.52 16.4348C12.17 16.1763 12.8472 15.9856 13.5398 15.866C14.5837 15.6913 15.6497 15.6762 16.6985 15.8211V17.0237C15.476 17.0429 14.2685 17.2856 13.141 17.7388Z" fill="#69C9D0"/>
<path d="M25.6797 5.55794H21.6102V26.2698C21.6102 26.9979 21.6102 27.7 21.3579 28.4014C20.9468 29.5208 20.0726 30.5317 18.9073 30.9802C17.1581 31.6537 15.7907 31.5789 14.1595 30.546C13.7545 30.2788 13.3984 29.9493 13.1055 29.5709C14.4952 30.2814 15.7392 30.2691 17.2802 29.6762C18.4447 29.2276 19.3204 28.2168 19.73 27.0967C19.9864 26.3972 19.983 25.6932 19.983 24.9658V4.25H25.6024C25.6024 4.25 25.5393 4.76486 25.6797 5.55794ZM33.3753 11.7388V12.8914C32.7156 12.7408 32.0761 12.5181 31.4694 12.2277C30.2939 11.6653 29.3783 10.7494 29.1992 10.5641C29.407 10.6949 29.6226 10.8138 29.8449 10.9204C31.274 11.6042 32.6814 11.8084 33.3753 11.7388Z" fill="#69C9D0"/>
<path d="M48.3182 14.196L48.7614 11.5455H62.6875L62.2443 14.196H56.8494L54.3949 29H51.2585L53.7131 14.196H48.3182ZM62.3381 29L64.5199 15.9091H67.6051L65.4233 29H62.3381ZM66.5142 14.0341C66.0199 14.0341 65.6108 13.8693 65.2869 13.5398C64.9631 13.2102 64.821 12.8153 64.8608 12.3551C64.9006 11.8949 65.108 11.5 65.483 11.1705C65.8636 10.8409 66.2983 10.6761 66.7869 10.6761C67.2813 10.6761 67.6875 10.8409 68.0057 11.1705C68.3295 11.5 68.4716 11.8949 68.4318 12.3551C68.3977 12.8153 68.1903 13.2102 67.8097 13.5398C67.4347 13.8693 67.0028 14.0341 66.5142 14.0341ZM72.0817 24.892L72.6868 21.1676H73.1811L78.7805 15.9091H82.3857L75.5334 22.3523H74.9027L72.0817 24.892ZM68.5959 29L71.4936 11.5455H74.5788L71.6811 29H68.5959ZM76.8118 29L73.5391 23.0426L75.9851 20.8693L80.5021 29H76.8118ZM82.7244 14.196L83.1676 11.5455H97.0938L96.6506 14.196H91.2557L88.8011 29H85.6648L88.1193 14.196H82.7244ZM100.59 29.2557C99.3004 29.2557 98.2266 28.9716 97.3686 28.4034C96.5163 27.8352 95.9169 27.0369 95.5703 26.0085C95.2237 24.9801 95.1612 23.7869 95.3828 22.429C95.6044 21.0881 96.0476 19.9148 96.7124 18.9091C97.3828 17.9034 98.2266 17.125 99.2436 16.5739C100.266 16.017 101.411 15.7386 102.678 15.7386C103.968 15.7386 105.039 16.0256 105.891 16.5994C106.744 17.1676 107.343 17.9659 107.69 18.9943C108.042 20.0227 108.107 21.2216 107.886 22.5909C107.67 23.9261 107.224 25.0938 106.548 26.0938C105.877 27.0938 105.033 27.8722 104.016 28.429C102.999 28.9801 101.857 29.2557 100.59 29.2557ZM100.846 26.7841C101.562 26.7841 102.19 26.5909 102.729 26.2045C103.275 25.8125 103.721 25.2869 104.067 24.6278C104.42 23.9631 104.664 23.2244 104.8 22.4119C104.925 21.6278 104.928 20.9176 104.809 20.2812C104.69 19.6392 104.434 19.1307 104.042 18.7557C103.656 18.375 103.119 18.1847 102.431 18.1847C101.715 18.1847 101.082 18.3835 100.531 18.7812C99.9851 19.1733 99.5391 19.7017 99.1925 20.3665C98.8459 21.0256 98.6072 21.7614 98.4766 22.5739C98.3459 23.358 98.3402 24.0682 98.4595 24.7045C98.5788 25.3409 98.8345 25.8466 99.2266 26.2216C99.6186 26.5966 100.158 26.7841 100.846 26.7841ZM112.933 24.892L113.538 21.1676H114.033L119.632 15.9091H123.237L116.385 22.3523H115.754L112.933 24.892ZM109.447 29L112.345 11.5455H115.43L112.533 29H109.447ZM117.663 29L114.391 23.0426L116.837 20.8693L121.354 29H117.663ZM140.766 16.429C140.789 15.6392 140.548 15.0341 140.042 14.6136C139.542 14.1932 138.823 13.983 137.886 13.983C137.227 13.983 136.644 14.0824 136.138 14.2812C135.638 14.4744 135.235 14.7443 134.928 15.0909C134.621 15.4318 134.431 15.821 134.357 16.2585C134.295 16.6165 134.326 16.929 134.451 17.196C134.576 17.4631 134.766 17.6903 135.022 17.8778C135.283 18.0653 135.579 18.2216 135.908 18.3466C136.244 18.4716 136.585 18.5767 136.931 18.6619L138.499 19.071C139.124 19.2244 139.721 19.4318 140.289 19.6932C140.857 19.9489 141.349 20.2784 141.763 20.6818C142.184 21.0795 142.491 21.5597 142.684 22.1222C142.877 22.6847 142.908 23.3437 142.778 24.0994C142.607 25.1222 142.195 26.0227 141.542 26.8011C140.894 27.5739 140.042 28.179 138.985 28.6165C137.934 29.0483 136.71 29.2642 135.312 29.2642C133.96 29.2642 132.817 29.054 131.886 28.6335C130.954 28.2074 130.272 27.5909 129.84 26.7841C129.414 25.9773 129.278 24.9972 129.431 23.8438H132.542C132.479 24.4517 132.579 24.9574 132.84 25.3608C133.107 25.7642 133.491 26.0653 133.991 26.2642C134.491 26.4631 135.07 26.5625 135.729 26.5625C136.417 26.5625 137.039 26.4602 137.596 26.2557C138.153 26.0455 138.607 25.7557 138.96 25.3864C139.317 25.0114 139.536 24.5739 139.616 24.0739C139.695 23.625 139.63 23.25 139.42 22.9489C139.21 22.6477 138.883 22.3977 138.44 22.1989C138.002 21.9943 137.479 21.8125 136.871 21.6534L134.979 21.142C133.61 20.767 132.57 20.2045 131.86 19.4545C131.156 18.7045 130.906 17.7045 131.11 16.4545C131.281 15.4205 131.71 14.5199 132.397 13.7528C133.085 12.9801 133.945 12.3807 134.979 11.9545C136.013 11.5227 137.144 11.3068 138.371 11.3068C139.61 11.3068 140.658 11.5227 141.516 11.9545C142.38 12.3864 143.011 12.9886 143.408 13.7614C143.812 14.5284 143.945 15.4176 143.809 16.429H140.766ZM149.014 21.3295L147.753 29H144.659L147.557 11.5455H150.582L149.491 18.1335H149.653C150.068 17.3892 150.634 16.804 151.349 16.3778C152.071 15.9517 152.938 15.7386 153.949 15.7386C154.847 15.7386 155.602 15.929 156.216 16.3097C156.83 16.6903 157.261 17.2472 157.511 17.9801C157.767 18.7131 157.81 19.608 157.639 20.6648L156.241 29H153.148L154.46 21.142C154.602 20.2614 154.486 19.5767 154.111 19.0881C153.741 18.5937 153.156 18.3466 152.355 18.3466C151.804 18.3466 151.295 18.4659 150.83 18.7045C150.364 18.9375 149.972 19.2756 149.653 19.7188C149.341 20.1619 149.128 20.6989 149.014 21.3295ZM165.114 29.2557C163.824 29.2557 162.75 28.9716 161.892 28.4034C161.04 27.8352 160.44 27.0369 160.094 26.0085C159.747 24.9801 159.685 23.7869 159.906 22.429C160.128 21.0881 160.571 19.9148 161.236 18.9091C161.906 17.9034 162.75 17.125 163.767 16.5739C164.79 16.017 165.935 15.7386 167.202 15.7386C168.491 15.7386 169.563 16.0256 170.415 16.5994C171.267 17.1676 171.866 17.9659 172.213 18.9943C172.565 20.0227 172.631 21.2216 172.409 22.5909C172.193 23.9261 171.747 25.0938 171.071 26.0938C170.401 27.0938 169.557 27.8722 168.54 28.429C167.523 28.9801 166.381 29.2557 165.114 29.2557ZM165.369 26.7841C166.085 26.7841 166.713 26.5909 167.253 26.2045C167.798 25.8125 168.244 25.2869 168.591 24.6278C168.943 23.9631 169.188 23.2244 169.324 22.4119C169.449 21.6278 169.452 20.9176 169.332 20.2812C169.213 19.6392 168.957 19.1307 168.565 18.7557C168.179 18.375 167.642 18.1847 166.955 18.1847C166.239 18.1847 165.605 18.3835 165.054 18.7812C164.509 19.1733 164.063 19.7017 163.716 20.3665C163.369 21.0256 163.131 21.7614 163 22.5739C162.869 23.358 162.864 24.0682 162.983 24.7045C163.102 25.3409 163.358 25.8466 163.75 26.2216C164.142 26.5966 164.682 26.7841 165.369 26.7841ZM173.161 33.9091L176.178 15.9091H179.212L178.863 18.0739H179.042C179.246 17.7557 179.522 17.4176 179.869 17.0597C180.221 16.696 180.667 16.3864 181.207 16.1307C181.746 15.8693 182.403 15.7386 183.175 15.7386C184.181 15.7386 185.048 15.9972 185.775 16.5142C186.502 17.0256 187.022 17.7841 187.335 18.7898C187.653 19.7898 187.692 21.017 187.454 22.4716C187.215 23.9091 186.775 25.1307 186.133 26.1364C185.491 27.142 184.721 27.9091 183.823 28.4375C182.925 28.9659 181.962 29.2301 180.934 29.2301C180.184 29.2301 179.579 29.1051 179.119 28.8551C178.664 28.6051 178.32 28.304 178.087 27.9517C177.854 27.5937 177.681 27.2557 177.567 26.9375H177.431L176.272 33.9091H173.161ZM178.113 22.4545C177.977 23.3011 177.974 24.0426 178.104 24.679C178.241 25.3153 178.511 25.8125 178.914 26.1705C179.317 26.5227 179.846 26.6989 180.499 26.6989C181.181 26.6989 181.778 26.517 182.289 26.1534C182.806 25.7841 183.235 25.2812 183.576 24.6449C183.923 24.0028 184.167 23.2727 184.309 22.4545C184.44 21.642 184.44 20.9205 184.309 20.2898C184.178 19.6591 183.914 19.1648 183.516 18.8068C183.119 18.4489 182.579 18.2699 181.897 18.2699C181.232 18.2699 180.638 18.4432 180.116 18.7898C179.599 19.1364 179.17 19.6222 178.829 20.2472C178.488 20.8722 178.249 21.608 178.113 22.4545Z" fill="black"/>
</svg>
