<?xml version="1.0" standalone="no"?><!DOCTYPE svg PUBLIC "-//W3C//DTD SVG 1.1//EN" "http://www.w3.org/Graphics/SVG/1.1/DTD/svg11.dtd"><svg class="icon" width="142em" height="48em" viewBox="0 0 5084 824" version="1.1" xmlns="http://www.w3.org/2000/svg"><path d="M13.137507 98.587156A162.646252 162.646252 0 0 1 158.052931 0.044668h1395.279793a159.577454 159.577454 0 0 1 163.328206 156.508657v542.154172a159.236477 159.236477 0 0 1-150.371063 153.780837H1056.869532c22.163535 56.602259 45.690981 112.863541 68.195494 168.101891-102.29324-55.23835-201.176705-112.863541-303.469946-168.101891-222.317308-2.045865-446.339504 0-670.702676 0A157.872567 157.872567 0 0 1 0.180364 698.707497V176.330018a190.265426 190.265426 0 0 1 12.957143-77.742862" fill="#8F5A82" /><path d="M695.774395 110.521367a62.057899 62.057899 0 0 1 94.109781 12.957144 57.625192 57.625192 0 0 1 2.386842 55.23835 829.257199 829.257199 0 0 0-64.785718 226.06806 1466.203106 1466.203106 0 0 0-24.891355 304.492877 57.284214 57.284214 0 0 1-38.871432 63.421809 70.582336 70.582336 0 0 1-68.195493-30.346994 716.05268 716.05268 0 0 1-150.71204-292.899644c-31.710904 61.034967-63.421809 123.433843-92.745871 185.832719a449.067323 449.067323 0 0 1-77.742862 118.660159c-14.321054 14.321054-38.871431 27.278197-57.625192 12.957143A210.042119 210.042119 0 0 1 170.669097 670.406367 4021.147263 4021.147263 0 0 1 75.536384 197.470621a57.625192 57.625192 0 0 1 32.051882-68.195493 68.195493 68.195493 0 0 1 68.195493 7.160527 75.35602 75.35602 0 0 1 18.753761 44.668048c17.730828 123.433843 38.871431 245.844753 69.218425 364.504911l151.734973-289.489869a94.450758 94.450758 0 0 1 30.687972-36.484589 48.077823 48.077823 0 0 1 61.375944 6.137595 98.542488 98.542488 0 0 1 21.140603 50.464665 1370.729415 1370.729415 0 0 0 64.444741 235.274452 1312.081291 1312.081291 0 0 1 70.582335-336.54476 260.847762 260.847762 0 0 1 32.051882-64.785718m286.76205 62.398876a174.580463 174.580463 0 0 1 150.71204 52.851507 231.5237 231.5237 0 0 1 52.851507 123.433843 385.986492 385.986492 0 0 1-42.281206 226.068061A253.687235 253.687235 0 0 1 1057.21051 675.180052a176.626328 176.626328 0 0 1-187.196629-5.796617 212.087984 212.087984 0 0 1-78.765795-131.95828 359.39025 359.39025 0 0 1 102.29324-323.246638 158.213544 158.213544 0 0 1 90.359029-41.258273m10.911278 117.637226a119.683091 119.683091 0 0 0-57.966169 55.238349A207.996255 207.996255 0 0 0 920.819523 539.811998a59.671057 59.671057 0 0 0 38.871431 37.848498 68.195493 68.195493 0 0 0 52.851508-21.140603 197.425953 197.425953 0 0 0 56.602259-110.817676 190.265426 190.265426 0 0 0-24.2094-138.777829 44.668048 44.668048 0 0 0-51.487597-16.366918m426.903788-117.637226A176.967305 176.967305 0 0 1 1568.67671 222.361976a225.386105 225.386105 0 0 1 56.261282 132.981212 379.50792 379.50792 0 0 1-40.917296 217.543624 252.323325 252.323325 0 0 1-89.677074 102.29324 179.01317 179.01317 0 0 1-180.036102-2.386843 186.173697 186.173697 0 0 1-75.015043-98.883465 364.163934 364.163934 0 0 1 82.175569-353.93461 180.37708 180.37708 0 0 1 98.883466-47.05489M1432.285723 290.55747a136.390987 136.390987 0 0 0-61.034966 62.398876 207.3143 207.3143 0 0 0-10.570302 189.242494 55.23835 55.23835 0 0 0 41.258273 34.097746 80.129705 80.129705 0 0 0 55.23835-26.937219 195.039111 195.039111 0 0 0 51.828575-122.410911 184.127832 184.127832 0 0 0-26.255265-120.024068A46.372935 46.372935 0 0 0 1432.285723 290.55747" fill="#FFFFFF" /><path d="M2005.127867 188.26423a338.931602 338.931602 0 0 1 142.187603 0v115.250383a174.239485 174.239485 0 0 0-117.637226 0 134.345122 134.345122 0 0 0-68.195493 118.660159 140.141739 140.141739 0 0 0 55.23835 127.184595 157.190612 157.190612 0 0 0 130.594369 8.183459v114.227451a282.67032 282.67032 0 0 1-172.875575-5.796617 233.910542 233.910542 0 0 1-138.777829-149.689108 316.086111 316.086111 0 0 1-4.773685-158.554522 238.684227 238.684227 0 0 1 174.239486-170.488733m340.977466-6.137594a223.681218 223.681218 0 0 1 167.078959 39.894363 220.612421 220.612421 0 0 1 75.35602 144.915424 403.035365 403.035365 0 0 1-12.957144 179.695124 197.084976 197.084976 0 0 1-96.496623 117.637226 246.185731 246.185731 0 0 1-156.508657 12.957144 177.64926 177.64926 0 0 1-112.863541-84.903389 353.93461 353.93461 0 0 1-36.484589-190.606404 249.936483 249.936483 0 0 1 54.215417-156.508657 201.176705 201.176705 0 0 1 120.024068-62.398876m18.753761 109.453766a68.195493 68.195493 0 0 0-44.668048 53.192485 450.431233 450.431233 0 0 0-7.160527 138.777829 132.640234 132.640234 0 0 0 23.527445 72.969178 62.057899 62.057899 0 0 0 88.313164 0 12.616166 12.616166 0 0 1 4.773684-4.773685 121.047001 121.047001 0 0 0 21.140603-62.398876 399.966568 399.966568 0 0 0 0-117.637226 123.433843 123.433843 0 0 0-28.301129-64.444741 58.648124 58.648124 0 0 0-57.625192-15.343986m2250.451279-102.29324a334.498895 334.498895 0 0 1 149.34813 0V304.537546a177.990238 177.990238 0 0 0-115.250384 0 130.59437 130.59437 0 0 0-70.582335 109.453766 144.574446 144.574446 0 0 0 53.192485 136.390987 153.098882 153.098882 0 0 0 132.640234 9.547369v115.250384a286.080094 286.080094 0 0 1-182.422944-10.570302 232.88761 232.88761 0 0 1-129.23046-150.71204 303.128968 303.128968 0 0 1-2.386843-156.16768 231.5237 231.5237 0 0 1 164.692117-167.078958m-1951.755019 3.409774h162.305275c18.753761 88.313164 37.507521 176.626328 55.238349 264.598515 15.343986-89.336096 36.484589-177.64926 57.625192-264.598515h167.078959c22.504513 159.918432 42.281206 318.813931 64.785718 477.368454h-128.207527c-11.593234-109.453767-22.163535-218.907534-34.097747-326.997391-25.914287 108.089857-52.851507 218.566556-78.765795 326.997391h-88.313163c-27.960152-109.453767-55.23835-218.907534-83.53948-328.361301-10.570301 108.430834-22.163535 218.907534-34.097746 328.361301h-121.047001c20.117671-158.895499 39.894364-317.790999 60.012034-477.368454m584.776355 0h163.328207c18.753761 88.313164 37.848499 176.626328 55.238349 264.598515 16.707896-87.972186 36.484589-177.64926 57.625192-264.598515h166.056026c22.163535 159.918432 43.645116 318.813931 64.785719 477.368454h-128.207528c-11.934211-109.453767-22.504513-218.907534-34.097746-326.997391-25.914287 108.089857-51.828575 218.566556-79.106772 326.997391h-86.949254c-28.30113-109.453767-55.23835-218.907534-83.53948-328.361301-10.570301 109.453767-22.163535 218.907534-34.097746 328.361301h-121.047001c19.776693-158.895499 39.894364-317.790999 60.012034-477.368454m542.154172 0h261.188739v102.29324h-131.617302v88.313164h113.886474v98.883466H3921.421229v87.972186h132.981212v102.29324h-262.55265c0-159.918432 2.386842-317.450021 0-477.368453m299.037238 0h163.328207A215.156781 215.156781 0 0 1 4398.789682 244.525512a128.889482 128.889482 0 0 1 34.097746 129.571437 136.390987 136.390987 0 0 1-71.605268 82.175569c34.097747 71.946245 68.195493 143.551513 102.29324 215.497759h-136.390986c-34.097747-72.969178-70.582336-147.302266-105.703015-219.930466v219.930466H4091.909962c-2.045865-158.895499-2.045865-317.790999-2.045865-477.368453m129.23046 91.722938v114.227452a122.41091 122.41091 0 0 0 68.195493-16.707896 54.556395 54.556395 0 0 0 5.796617-72.6282c-17.389851-22.504513-48.077823-22.504513-73.99211-24.891356m584.776355-90.700006h261.188739v102.29324h-132.981212v87.972187H5046.646868v97.860533h-114.227451v87.972186h132.981212v102.29324h-261.18874v-477.368453"  /></svg>
